<?xml version="1.0" encoding="UTF-8" standalone="yes"?>
<style>
   svg {
      &.light {

         --center: transparent;
         --base: white;
         --light: white;

         &.color {
            --center: #00bcff;
            --base: #00bcff;
            --light: #99e3ff;
         }

      }

      &.dark {

         --center: transparent;
         --base: black;
         --light: black;

         &.color {
            --center: #3360ffff;
            --base: #3360ffff;
            --light: #99b0ffff;
         }

      }

   }
</style>

<svg class="light color" width="351.11169" height="88.286758" viewBox="0 0 92.898302 23.359205" version="1.1" id="svg1"
   xmlns="http://www.w3.org/2000/svg" xmlns:svg="http://www.w3.org/2000/svg">
   <defs id="defs1" />
   <g id="layer1" transform="translate(-80,-82.273667)">
      <path style="fill:var(--base)"
         d="m 114.81611,104.87279 q -2.21814,0 -3.96309,-0.34011 -1.73015,-0.34013 -2.85402,-0.85769 l -0.25139,-6.373477 h 0.0148 q 0.34012,1.71537 1.03515,3.105407 0.7098,1.39004 1.65621,2.38082 0.94641,0.97598 2.07027,1.50833 1.12387,0.53236 2.29209,0.53236 1.83366,0 2.95753,-1.04993 1.13865,-1.0647 1.13865,-2.80965 0,-1.478757 -0.90205,-2.513897 -0.90205,-1.04992 -2.98711,-1.81888 l -1.84845,-0.68023 q -2.61741,-0.9612 -4.02225,-2.60263 -1.40482,-1.64142 -1.40482,-3.99266 0,-2.09985 1.0795,-3.50467 1.07949,-1.40483 2.95753,-2.09985 1.87803,-0.70981 4.28842,-0.70981 2.05549,0 3.46031,0.32533 1.41961,0.31054 2.12943,0.72459 l 0.10349,5.26441 h -0.0148 q -0.41406,-1.80409 -1.22736,-3.22371 -0.79855,-1.41961 -1.92241,-2.23293 -1.12387,-0.81333 -2.52868,-0.81333 -1.9224,0 -2.95754,0.94641 -1.02035,0.94641 -1.02035,2.43997 0,1.47876 0.94642,2.46954 0.94641,0.97598 2.91316,1.71536 l 1.81888,0.68024 q 2.70615,1.00556 4.0814,2.76528 1.39004,1.74494 1.39004,4.11097 0,2.055477 -1.10908,3.549037 -1.09428,1.49355 -3.0019,2.30687 -1.89282,0.79853 -4.31799,0.79853 z m 25.47913,-3.69691 q 0.39926,1.1978 0.76895,1.9076 0.3697,0.69502 0.81333,1.04994 0.44362,0.34011 1.04992,0.48798 v 0.0148 h -9.64155 v -0.0148 q 0.78375,-0.13308 1.16822,-0.48798 0.39928,-0.3697 0.39928,-1.12387 0.0148,-0.75417 -0.39928,-2.05548 l -4.51023,-13.974327 v 0 l -4.09618,13.397607 q -0.48799,1.56749 -0.53236,2.43996 -0.0444,0.85768 0.35491,1.25695 0.41406,0.38448 1.3161,0.54714 v 0.0148 h -4.74684 v -0.0148 q 0.63588,-0.16266 1.09429,-0.53235 0.45841,-0.36969 0.90204,-1.24216 0.45843,-0.88726 1.03514,-2.55827 l 5.94464,-17.005797 h 3.00188 z m -13.64901,-4.244057 0.0887,-0.26618 h 8.93175 l 0.0148,0.26618 z m 31.51249,7.704357 h -15.40874 v -0.0148 q 0.63588,-0.17744 0.99077,-0.39926 0.35491,-0.2366 0.488,-0.63586 0.14788,-0.39927 0.14788,-1.07951 V 85.397463 q 0,-0.68023 -0.14788,-1.0795 -0.13309,-0.39927 -0.488,-0.62108 -0.35489,-0.2366 -0.99077,-0.39927 v -0.0148 h 8.72472 v 0.0148 q -0.7098,0.13309 -1.09429,0.39927 -0.38447,0.25139 -0.53235,0.72459 -0.14788,0.45842 -0.14788,1.21259 V 104.6214 l 1.6858,-0.10351 q 1.62663,-0.11831 2.79486,-0.50279 1.16822,-0.39926 1.98154,-1.12386 0.81332,-0.73938 1.34569,-1.84845 0.53235,-1.123857 0.87247,-2.676567 h 0.0148 z m 15.05382,-21.353357 0.23661,5.79677 h -0.0148 q -0.41406,-1.83367 -1.12387,-2.98711 -0.69502,-1.15344 -1.81888,-1.8041 -1.12386,-0.65065 -2.79487,-0.90204 l -0.63586,-0.0887 v 18.972547 q 0,0.75417 0.14787,1.22737 0.14788,0.45843 0.53236,0.7246 0.38448,0.26618 1.09428,0.39927 v 0.0148 h -8.87259 v -0.0148 q 0.7246,-0.13309 1.10908,-0.39927 0.38448,-0.26617 0.51756,-0.7246 0.14789,-0.4732 0.14789,-1.22737 V 83.297633 l -0.62109,0.0887 q -1.65622,0.25139 -2.78007,0.88726 -1.12386,0.63587 -1.83367,1.78931 -0.70982,1.15344 -1.13865,3.01668 h -0.0148 l 0.2366,-5.79676 z" />



      <path style="fill:var(--center)"
         d="m 93.600187,85.186163 7.404423,7.44342 a 1.9044397,1.9044396 0 0 1 -0.007,2.69328 l -7.443433,7.404417 a 1.9044405,1.9044405 0 0 1 -2.69327,-0.007 l -7.4044,-7.443387 a 1.9044408,1.9044408 0 0 1 0.007,-2.69328 l 7.44339,-7.40442 a 1.9044408,1.9044408 0 0 1 2.69328,0.007 z" />

      <path style="fill:var(--light)"
         d="m 92.260977,82.273683 c -1.09786,-0.003 -2.19663,0.40663 -3.02274,1.22842 l -7.44389,7.4043 c -1.65223,1.64357 -1.65871,4.38626 -0.0151,6.03849 l 7.40431,7.443887 c 1.64357,1.65223 4.38742,1.65987 6.03965,0.0163 l 7.442733,-7.404297 c 1.65222,-1.64357 1.65987,-4.38743 0.0163,-6.03965 l -7.404303,-7.44389 c -0.82178,-0.82612 -1.91905,-1.24068 -3.01691,-1.24356 z m -0.0116,4.90787 6.75225,6.78951 -6.78951,6.753407 -6.75225,-6.789507 z" />

   </g>
</svg>