<?xml version="1.0" encoding="UTF-8" standalone="no"?>
<!-- Created with Inkscape (http://www.inkscape.org/) -->

<svg
   version="1.1"
   id="svg1"
   width="1333.3333"
   height="1000"
   viewBox="0 0 1333.3333 1000"
   xmlns="http://www.w3.org/2000/svg"
   xmlns:svg="http://www.w3.org/2000/svg">
  <defs
     id="defs1" />
  <g
     id="g1">
    <g
       id="group-R5">
      <path
         id="path2"
         d="m 437.5,5578.12 230,172.5 145,108.75 L 0,6468.75 V 6187.5 l 437.5,-328.13 v -281.25"
         style="fill:#0044aa;fill-opacity:1;fill-rule:nonzero;stroke:none"
         transform="matrix(0.13333333,0,0,-0.13333333,0,1000)" />
      <path
         id="path3"
         d="M 855,5703.75 312.5,5296.87 v -281.25 l 730,547.5 20,15 v 281.25 L 855,5703.75"
         style="fill:#80b3ff;fill-opacity:1;fill-rule:nonzero;stroke:none"
         transform="matrix(0.13333333,0,0,-0.13333333,0,1000)" />
      <path
         id="path4"
         d="M 198.75,5680.31 125,5625 l 187.5,-140.63 73.75,55.32 51.25,38.43 v 281.25 L 198.75,5680.31"
         style="fill:#5599ff;fill-opacity:1;fill-rule:nonzero;stroke:none"
         transform="matrix(0.13333333,0,0,-0.13333333,0,1000)" />
      <path
         id="path5"
         d="M 0,7406.25 V 7125 l 312.5,-234.37 v 281.25 L 0,7406.25"
         style="fill:#0044aa;fill-opacity:1;fill-rule:nonzero;stroke:none"
         transform="matrix(0.13333333,0,0,-0.13333333,0,1000)" />
      <path
         id="path6"
         d="m 2375,5625 -187.5,140.62 v -281.25 z"
         style="fill:#0044aa;fill-opacity:1;fill-rule:nonzero;stroke:none"
         transform="matrix(0.13333333,0,0,-0.13333333,0,1000)" />
      <path
         id="path7"
         d="M 0,5531.25 V 5250 l 312.5,-234.38 v 281.25 L 0,5531.25"
         style="fill:#0044aa;fill-opacity:1;fill-rule:nonzero;stroke:none"
         transform="matrix(0.13333333,0,0,-0.13333333,0,1000)" />
      <path
         id="path8"
         d="M 312.5,6703.13 0,6937.5 v -281.25 l 312.5,-234.38 v 281.26"
         style="fill:#002255;fill-opacity:1;fill-rule:nonzero;stroke:none"
         transform="matrix(0.13333333,0,0,-0.13333333,0,1000)" />
      <path
         id="path9"
         d="m 0,4125 v -281.25 l 187.5,140.62 z"
         style="fill:#002255;fill-opacity:1;fill-rule:nonzero;stroke:none"
         transform="matrix(0.13333333,0,0,-0.13333333,0,1000)" />
      <path
         id="path10"
         d="m 0,6000 v -281.25 l 187.5,140.62 z"
         style="fill:#002255;fill-opacity:1;fill-rule:nonzero;stroke:none"
         transform="matrix(0.13333333,0,0,-0.13333333,0,1000)" />
      <path
         id="path11"
         d="m 312.5,4546.87 v 281.25 L 0,5062.5 v -281.25 l 290,-217.5 22.5,-16.88"
         style="fill:#002255;fill-opacity:1;fill-rule:nonzero;stroke:none"
         transform="matrix(0.13333333,0,0,-0.13333333,0,1000)" />
      <path
         id="path12"
         d="M 1209.17,6499.37 1125,6562.5 v -281.25 l 8.55,-6.41 116.45,-87.34 v 281.25 l -40.83,30.62"
         style="fill:#0044aa;fill-opacity:1;fill-rule:nonzero;stroke:none"
         transform="matrix(0.13333333,0,0,-0.13333333,0,1000)" />
      <path
         id="path13"
         d="m 542.5,6249.37 520,-390 V 5578.12 L 1250,5718.75 V 6000 L 714.527,6401.6 500,6562.5 v -281.25 l 42.5,-31.88"
         style="fill:#002255;fill-opacity:1;fill-rule:nonzero;stroke:none"
         transform="matrix(0.13333333,0,0,-0.13333333,0,1000)" />
      <path
         id="path14"
         d="m 3000,7500 h -62.5 v -46.87 z"
         style="fill:#0044aa;fill-opacity:1;fill-rule:nonzero;stroke:none"
         transform="matrix(0.13333333,0,0,-0.13333333,0,1000)" />
      <path
         id="path15"
         d="M 312.5,6703.13 V 6421.87 L 500,6281.25 v 281.25 l 370.168,277.62 4.832,3.63 334.83,251.13 40.17,30.12 187.5,-140.62 v 281.25 L 1750,7500 h -375 l -687.5,-515.62 -375,-281.25"
         style="fill:#5599ff;fill-opacity:1;fill-rule:nonzero;stroke:none"
         transform="matrix(0.13333333,0,0,-0.13333333,0,1000)" />
      <path
         id="path16"
         d="m 1000,6750 -4.832,-3.63 L 750,6562.5 829.215,6503.09 856.086,6482.94 1125,6281.25 v 281.25 l 62.5,46.88 62.5,46.87 V 6937.5 L 1000,6750"
         style="fill:#80b3ff;fill-opacity:1;fill-rule:nonzero;stroke:none"
         transform="matrix(0.13333333,0,0,-0.13333333,0,1000)" />
      <path
         id="path17"
         d="m 1687.5,7265.63 65.97,-49.48 88.69,-66.52 220.34,-165.25 v 281.25 l 125,93.75 V 7500 H 2000 l -107.5,-80.62 -205,-153.75"
         style="fill:#80b3ff;fill-opacity:1;fill-rule:nonzero;stroke:none"
         transform="matrix(0.13333333,0,0,-0.13333333,0,1000)" />
      <path
         id="path18"
         d="m 500,7500 h -62.5 v -46.87 z"
         style="fill:#0044aa;fill-opacity:1;fill-rule:nonzero;stroke:none"
         transform="matrix(0.13333333,0,0,-0.13333333,0,1000)" />
      <path
         id="path19"
         d="m 1125,7500 h -62.5 v -46.87 z"
         style="fill:#002255;fill-opacity:1;fill-rule:nonzero;stroke:none"
         transform="matrix(0.13333333,0,0,-0.13333333,0,1000)" />
      <path
         id="path20"
         d="m 312.5,7171.88 v -281.25 l 250,187.5 408.668,306.5 91.332,68.5 V 7500 H 750 l -375,-281.25 -62.5,-46.87"
         style="fill:#80b3ff;fill-opacity:1;fill-rule:nonzero;stroke:none"
         transform="matrix(0.13333333,0,0,-0.13333333,0,1000)" />
      <path
         id="path21"
         d="m 2812.5,6890.63 730,547.5 20,15 V 7500 H 3250 l -437.5,-328.12 v -281.25"
         style="fill:#80b3ff;fill-opacity:1;fill-rule:nonzero;stroke:none"
         transform="matrix(0.13333333,0,0,-0.13333333,0,1000)" />
      <path
         id="path22"
         d="m 375,7406.25 62.5,46.88 V 7500 H 125 l 187.5,-140.62 62.5,46.87"
         style="fill:#5599ff;fill-opacity:1;fill-rule:nonzero;stroke:none"
         transform="matrix(0.13333333,0,0,-0.13333333,0,1000)" />
      <path
         id="path23"
         d="M 1937.5,6046.87 312.5,4828.12 V 4546.87 L 500,4406.25 v 281.25 l 312.5,234.37 379.83,284.88 57.67,43.25 187.5,-140.63 v 281.25 L 1750,5625 l 375,281.25 62.5,46.87 v 281.25 l -250,-187.5"
         style="fill:#5599ff;fill-opacity:1;fill-rule:nonzero;stroke:none"
         transform="matrix(0.13333333,0,0,-0.13333333,0,1000)" />
      <path
         id="path24"
         d="M 2312.5,7265.63 2500,7125 v 281.25 z"
         style="fill:#5599ff;fill-opacity:1;fill-rule:nonzero;stroke:none"
         transform="matrix(0.13333333,0,0,-0.13333333,0,1000)" />
      <path
         id="path25"
         d="m 2886.25,7414.69 51.25,38.44 V 7500 H 2625 l 187.5,-140.62 73.75,55.31"
         style="fill:#5599ff;fill-opacity:1;fill-rule:nonzero;stroke:none"
         transform="matrix(0.13333333,0,0,-0.13333333,0,1000)" />
      <path
         id="path26"
         d="M 2812.5,6421.87 3000,6281.25 v 281.25 l 312.5,234.38 379.83,284.87 57.67,43.25 187.5,-140.62 v 281.25 L 4250,7500 H 3875 L 2812.5,6703.13 v -281.26"
         style="fill:#5599ff;fill-opacity:1;fill-rule:nonzero;stroke:none"
         transform="matrix(0.13333333,0,0,-0.13333333,0,1000)" />
      <path
         id="path27"
         d="M 4875,7500 H 4687.5 V 7359.38 Z"
         style="fill:#0044aa;fill-opacity:1;fill-rule:nonzero;stroke:none"
         transform="matrix(0.13333333,0,0,-0.13333333,0,1000)" />
      <path
         id="path28"
         d="M 2254.34,7409.51 2375,7500 h -187.5 v -140.62 l 66.84,50.13"
         style="fill:#0044aa;fill-opacity:1;fill-rule:nonzero;stroke:none"
         transform="matrix(0.13333333,0,0,-0.13333333,0,1000)" />
      <path
         id="path29"
         d="M 2500,7406.25 V 7125 l 312.5,-234.37 v 281.25 L 2500,7406.25"
         style="fill:#0044aa;fill-opacity:1;fill-rule:nonzero;stroke:none"
         transform="matrix(0.13333333,0,0,-0.13333333,0,1000)" />
      <path
         id="path30"
         d="m 2500,5718.75 187.5,140.62 -500,375 V 5953.12 L 2500,5718.75"
         style="fill:#002255;fill-opacity:1;fill-rule:nonzero;stroke:none"
         transform="matrix(0.13333333,0,0,-0.13333333,0,1000)" />
      <path
         id="path31"
         d="m 4625,7218.75 -62.5,46.88 v -93.75 z"
         style="fill:#002255;fill-opacity:1;fill-rule:nonzero;stroke:none"
         transform="matrix(0.13333333,0,0,-0.13333333,0,1000)" />
      <path
         id="path32"
         d="m 2176.97,7179.77 -114.47,85.86 v -281.25 l 38.85,-29.14 688.65,-516.49 22.5,-16.88 v 281.26 l -635.53,476.64"
         style="fill:#002255;fill-opacity:1;fill-rule:nonzero;stroke:none"
         transform="matrix(0.13333333,0,0,-0.13333333,0,1000)" />
      <path
         id="path33"
         d="m 3625,7500 h -62.5 v -46.87 z"
         style="fill:#002255;fill-opacity:1;fill-rule:nonzero;stroke:none"
         transform="matrix(0.13333333,0,0,-0.13333333,0,1000)" />
      <path
         id="path34"
         d="M 1721.17,6353.37 1625,6281.25 1412.67,6122 1250,6000 v -281.25 l 307.57,230.68 254.93,191.19 96.17,72.13 91.33,68.5 v 281.25 l -278.83,-209.13"
         style="fill:#5599ff;fill-opacity:1;fill-rule:nonzero;stroke:none"
         transform="matrix(0.13333333,0,0,-0.13333333,0,1000)" />
      <path
         id="path35"
         d="M 1312.5,6515.63 1250,6468.75 V 6187.5 l 96.17,72.12 28.83,21.63 v 187.5 93.75 l -62.5,-46.87"
         style="fill:#5599ff;fill-opacity:1;fill-rule:nonzero;stroke:none"
         transform="matrix(0.13333333,0,0,-0.13333333,0,1000)" />
      <path
         id="path36"
         d="M 1562.5,6703.13 1250,6937.5 v -281.25 l 9.58,-7.19 115.42,-86.56 v -93.75 -187.5 l 125,93.75 250,187.5 -187.5,140.63"
         style="fill:#0044aa;fill-opacity:1;fill-rule:nonzero;stroke:none"
         transform="matrix(0.13333333,0,0,-0.13333333,0,1000)" />
      <path
         id="path37"
         d="m 4166.8,7093.65 -229.3,171.98 v -281.25 l 82.49,-61.87 105.01,-78.76 335,-251.25 40,-30 v -281.25 l 187.5,140.62 27.5,-20.62 285,-213.75 v 281.25 l -687.5,515.63 -145.7,109.27"
         style="fill:#0044aa;fill-opacity:1;fill-rule:nonzero;stroke:none"
         transform="matrix(0.13333333,0,0,-0.13333333,0,1000)" />
      <path
         id="path38"
         d="m 4687.5,5484.37 v 281.25 l -295,-221.25 -205,-153.75 65.97,-49.47 88.69,-66.52 220.34,-165.26 v 281.25 l 125,93.75"
         style="fill:#80b3ff;fill-opacity:1;fill-rule:nonzero;stroke:none"
         transform="matrix(0.13333333,0,0,-0.13333333,0,1000)" />
      <path
         id="path39"
         d="m 4250,6562.5 -187.5,140.63 -62.5,46.87 -250,187.5 v -281.25 l 32.04,-24.03 30.46,-22.84 62.5,-46.88 v -281.25 l 375,281.25"
         style="fill:#0044aa;fill-opacity:1;fill-rule:nonzero;stroke:none"
         transform="matrix(0.13333333,0,0,-0.13333333,0,1000)" />
      <path
         id="path40"
         d="M 3300.31,5868.52 3105,6015 l -42.5,31.87 -683.7,512.78 -203.8,152.85 -519.4,389.55 -218.1,163.58 v -281.25 l 71.28,-53.47 478.72,-359.03 12.5,-9.38 v -281.25 l 187.5,140.62 44.49,-33.36 643.01,-482.26 42.5,-31.88 20,-15 v -281.25 l 326.38,244.79 48.62,36.46 -12.19,9.15"
         style="fill:#0044aa;fill-opacity:1;fill-rule:nonzero;stroke:none"
         transform="matrix(0.13333333,0,0,-0.13333333,0,1000)" />
      <path
         id="path41"
         d="M 3437.5,6703.13 3250,6562.5 l 77.17,-57.88 62.04,-46.53 110.79,-83.09 125,-93.75 v 187.5 93.75 l 125,93.75 v 281.25 l -312.5,-234.37"
         style="fill:#80b3ff;fill-opacity:1;fill-rule:nonzero;stroke:none"
         transform="matrix(0.13333333,0,0,-0.13333333,0,1000)" />
      <path
         id="path42"
         d="m 4687.5,7500 v -140.62 l -125,-93.75 v -281.25 l -125,93.75 -89.6,67.2 -83.25,62.44 -77.15,57.86 L 4500,7500 h 187.5"
         style="fill:#80b3ff;fill-opacity:1;fill-rule:nonzero;stroke:none"
         transform="matrix(0.13333333,0,0,-0.13333333,0,1000)" />
      <path
         id="path43"
         d="M 3742.5,6005.62 3375,6281.25 3229.3,6390.53 3000,6562.5 v -281.25 l 82.49,-61.87 105.01,-78.76 367.5,-275.62 7.5,-5.63 V 5578.12 L 3750,5718.75 V 6000 l -7.5,5.62"
         style="fill:#002255;fill-opacity:1;fill-rule:nonzero;stroke:none"
         transform="matrix(0.13333333,0,0,-0.13333333,0,1000)" />
      <path
         id="path44"
         d="M 2687.5,5671.87 2625,5625 l 187.5,-140.63 62.5,46.88 62.5,46.87 v 281.25 l -250,-187.5"
         style="fill:#5599ff;fill-opacity:1;fill-rule:nonzero;stroke:none"
         transform="matrix(0.13333333,0,0,-0.13333333,0,1000)" />
      <path
         id="path45"
         d="M 4812.5,7265.63 5000,7125 v 281.25 z"
         style="fill:#5599ff;fill-opacity:1;fill-rule:nonzero;stroke:none"
         transform="matrix(0.13333333,0,0,-0.13333333,0,1000)" />
      <path
         id="path46"
         d="M 4812.5,5390.62 5000,5250 v 281.25 z"
         style="fill:#5599ff;fill-opacity:1;fill-rule:nonzero;stroke:none"
         transform="matrix(0.13333333,0,0,-0.13333333,0,1000)" />
      <path
         id="path47"
         d="M 4281.25,6398.44 3841.33,6068.5 3750,6000 v -281.25 l 145.35,109.01 573.4,430.05 31.25,23.44 v 281.25 l -218.75,-164.06"
         style="fill:#5599ff;fill-opacity:1;fill-rule:nonzero;stroke:none"
         transform="matrix(0.13333333,0,0,-0.13333333,0,1000)" />
      <path
         id="path48"
         d="M 3750,6468.75 V 6187.5 l 56.17,42.12 68.83,51.63 v 281.25 l -125,-93.75"
         style="fill:#5599ff;fill-opacity:1;fill-rule:nonzero;stroke:none"
         transform="matrix(0.13333333,0,0,-0.13333333,0,1000)" />
      <path
         id="path49"
         d="m 4675,4837.5 -519.4,389.55 -218.1,163.57 v -281.25 l 71.28,-53.46 478.72,-359.04 12.5,-9.37 v -281.25 l 187.5,140.62 44.49,-33.36 L 5000,4312.5 v 281.25 l -121.2,90.9 -203.8,152.85"
         style="fill:#0044aa;fill-opacity:1;fill-rule:nonzero;stroke:none"
         transform="matrix(0.13333333,0,0,-0.13333333,0,1000)" />
      <path
         id="path50"
         d="M 4754.34,5534.51 4875,5625 4687.5,5765.62 v -281.25 l 66.84,50.14"
         style="fill:#0044aa;fill-opacity:1;fill-rule:nonzero;stroke:none"
         transform="matrix(0.13333333,0,0,-0.13333333,0,1000)" />
      <path
         id="path51"
         d="m 3731.63,6482.53 -44.13,33.1 -62.5,46.87 v -281.25 l 31.01,-23.25 93.99,-70.5 v 281.25 l -18.37,13.78"
         style="fill:#0044aa;fill-opacity:1;fill-rule:nonzero;stroke:none"
         transform="matrix(0.13333333,0,0,-0.13333333,0,1000)" />
      <path
         id="path52"
         d="m 4625,7218.75 -62.5,-46.87 v -187.5 l 32.36,-24.27 405.14,-303.86 v 281.25 l -329.52,247.14 -45.48,34.11"
         style="fill:#002255;fill-opacity:1;fill-rule:nonzero;stroke:none"
         transform="matrix(0.13333333,0,0,-0.13333333,0,1000)" />
      <path
         id="path53"
         d="M 4687.5,4359.37 V 4078.12 L 5000,3843.75 V 4125 l -312.5,234.37"
         style="fill:#002255;fill-opacity:1;fill-rule:nonzero;stroke:none"
         transform="matrix(0.13333333,0,0,-0.13333333,0,1000)" />
      <path
         id="path54"
         d="M 4687.5,6234.37 V 5953.12 L 5000,5718.75 V 6000 l -312.5,234.37"
         style="fill:#002255;fill-opacity:1;fill-rule:nonzero;stroke:none"
         transform="matrix(0.13333333,0,0,-0.13333333,0,1000)" />
      <path
         id="path55"
         d="m 4562.5,5390.62 v -281.25 l 38.85,-29.13 398.65,-298.99 v 281.25 l -323.03,242.28 -114.47,85.84"
         style="fill:#002255;fill-opacity:1;fill-rule:nonzero;stroke:none"
         transform="matrix(0.13333333,0,0,-0.13333333,0,1000)" />
      <path
         id="path56"
         d="m 3312.5,3984.37 -1500,1125 -145.7,109.28 -229.3,171.97 v -281.25 l 82.49,-61.86 105.01,-78.76 335,-251.25 40,-30 v -281.25 l 187.5,140.62 27.5,-20.62 722.5,-541.88 V 3750 h 62.5 l 167.5,125.62 145,108.75"
         style="fill:#0044aa;fill-opacity:1;fill-rule:nonzero;stroke:none"
         transform="matrix(0.13333333,0,0,-0.13333333,0,1000)" />
      <path
         id="path57"
         d="m 3187.5,5109.37 -375,-281.25 V 4546.87 L 3000,4406.25 v 281.25 l 370.17,277.63 4.83,3.62 334.83,251.13 40.17,30.12 187.5,-140.63 v 281.25 l 330,247.5 420,315 v 281.25 l -1500,-1125"
         style="fill:#5599ff;fill-opacity:1;fill-rule:nonzero;stroke:none"
         transform="matrix(0.13333333,0,0,-0.13333333,0,1000)" />
      <path
         id="path58"
         d="m 2187.5,4078.12 v 281.25 L 1375,3750 h 375 l 17.5,13.12 420,315"
         style="fill:#5599ff;fill-opacity:1;fill-rule:nonzero;stroke:none"
         transform="matrix(0.13333333,0,0,-0.13333333,0,1000)" />
      <path
         id="path59"
         d="m 2000,3750 h 187.5 v 140.62 z"
         style="fill:#80b3ff;fill-opacity:1;fill-rule:nonzero;stroke:none"
         transform="matrix(0.13333333,0,0,-0.13333333,0,1000)" />
      <path
         id="path60"
         d="m 1750,4687.5 -187.5,140.62 -62.5,46.88 -250,187.5 v -281.25 l 32.04,-24.03 30.46,-22.85 62.5,-46.87 v -281.25 l 375,281.25"
         style="fill:#0044aa;fill-opacity:1;fill-rule:nonzero;stroke:none"
         transform="matrix(0.13333333,0,0,-0.13333333,0,1000)" />
      <path
         id="path61"
         d="m 812.5,3984.37 -12.191,9.15 L 605,4140 562.5,4171.87 0,4593.75 V 4312.5 l 375,-281.25 42.5,-31.88 20,-15 V 3750 H 500 l 263.879,197.91 48.621,36.46"
         style="fill:#0044aa;fill-opacity:1;fill-rule:nonzero;stroke:none"
         transform="matrix(0.13333333,0,0,-0.13333333,0,1000)" />
      <path
         id="path62"
         d="M 937.5,4828.12 750,4687.5 827.172,4629.62 889.215,4583.09 1000,4500 l 125,-93.75 v 187.5 93.75 l 125,93.75 V 5062.5 L 937.5,4828.12"
         style="fill:#80b3ff;fill-opacity:1;fill-rule:nonzero;stroke:none"
         transform="matrix(0.13333333,0,0,-0.13333333,0,1000)" />
      <path
         id="path63"
         d="m 2187.5,5765.62 v -281.25 l -125,-93.75 v -281.25 l -375,281.25 500,375"
         style="fill:#80b3ff;fill-opacity:1;fill-rule:nonzero;stroke:none"
         transform="matrix(0.13333333,0,0,-0.13333333,0,1000)" />
      <path
         id="path64"
         d="m 1250,4125 -7.5,5.62 L 875,4406.25 729.297,4515.53 500,4687.5 V 4406.25 L 582.484,4344.38 687.5,4265.62 1055,3990 l 7.5,-5.63 V 3750 h 62.5 l 125,93.75 V 4125"
         style="fill:#002255;fill-opacity:1;fill-rule:nonzero;stroke:none"
         transform="matrix(0.13333333,0,0,-0.13333333,0,1000)" />
      <path
         id="path65"
         d="M 783.668,3775.25 750,3750 h 312.5 v 234.37 L 783.668,3775.25"
         style="fill:#80b3ff;fill-opacity:1;fill-rule:nonzero;stroke:none"
         transform="matrix(0.13333333,0,0,-0.13333333,0,1000)" />
      <path
         id="path66"
         d="m 3283.67,5650.25 -408.67,-306.5 -62.5,-46.88 v -281.25 l 250,187.5 408.67,306.5 91.33,68.5 v 281.25 l -278.83,-209.12"
         style="fill:#80b3ff;fill-opacity:1;fill-rule:nonzero;stroke:none"
         transform="matrix(0.13333333,0,0,-0.13333333,0,1000)" />
      <path
         id="path67"
         d="M 3355,3828.75 3250,3750 h 312.5 v 234.37 L 3355,3828.75"
         style="fill:#80b3ff;fill-opacity:1;fill-rule:nonzero;stroke:none"
         transform="matrix(0.13333333,0,0,-0.13333333,0,1000)" />
      <path
         id="path68"
         d="M 187.5,3796.87 125,3750 h 312.5 v 234.37 l -250,-187.5"
         style="fill:#5599ff;fill-opacity:1;fill-rule:nonzero;stroke:none"
         transform="matrix(0.13333333,0,0,-0.13333333,0,1000)" />
      <path
         id="path69"
         d="M 2312.5,5390.62 2500,5250 v 281.25 z"
         style="fill:#5599ff;fill-opacity:1;fill-rule:nonzero;stroke:none"
         transform="matrix(0.13333333,0,0,-0.13333333,0,1000)" />
      <path
         id="path70"
         d="M 2698.75,3805.31 2625,3750 h 312.5 v 234.37 l -238.75,-179.06"
         style="fill:#5599ff;fill-opacity:1;fill-rule:nonzero;stroke:none"
         transform="matrix(0.13333333,0,0,-0.13333333,0,1000)" />
      <path
         id="path71"
         d="m 4687.5,4078.12 v 281.25 l -250,-187.5 L 3875,3750 h 375 l 375,281.25 62.5,46.87"
         style="fill:#5599ff;fill-opacity:1;fill-rule:nonzero;stroke:none"
         transform="matrix(0.13333333,0,0,-0.13333333,0,1000)" />
      <path
         id="path72"
         d="M 1781.25,4523.44 1341.33,4193.5 1250,4125 v -281.25 l 145.35,109 573.4,430.06 31.25,23.44 v 281.25 l -218.75,-164.06"
         style="fill:#5599ff;fill-opacity:1;fill-rule:nonzero;stroke:none"
         transform="matrix(0.13333333,0,0,-0.13333333,0,1000)" />
      <path
         id="path73"
         d="M 1250,4593.75 V 4312.5 l 56.17,42.13 68.83,51.62 v 281.25 l -125,-93.75"
         style="fill:#5599ff;fill-opacity:1;fill-rule:nonzero;stroke:none"
         transform="matrix(0.13333333,0,0,-0.13333333,0,1000)" />
      <path
         id="path74"
         d="M 2500,5531.25 V 5250 l 312.5,-234.38 v 281.25 L 2500,5531.25"
         style="fill:#0044aa;fill-opacity:1;fill-rule:nonzero;stroke:none"
         transform="matrix(0.13333333,0,0,-0.13333333,0,1000)" />
      <path
         id="path75"
         d="M 2187.5,3750 H 2375 l -187.5,140.62 z"
         style="fill:#0044aa;fill-opacity:1;fill-rule:nonzero;stroke:none"
         transform="matrix(0.13333333,0,0,-0.13333333,0,1000)" />
      <path
         id="path76"
         d="m 4500,3750 h 187.5 v 140.62 z"
         style="fill:#80b3ff;fill-opacity:1;fill-rule:nonzero;stroke:none"
         transform="matrix(0.13333333,0,0,-0.13333333,0,1000)" />
      <path
         id="path77"
         d="M 4687.5,3750 H 4875 l -187.5,140.62 z"
         style="fill:#0044aa;fill-opacity:1;fill-rule:nonzero;stroke:none"
         transform="matrix(0.13333333,0,0,-0.13333333,0,1000)" />
      <path
         id="path78"
         d="m 1231.63,4607.53 -44.13,33.09 -62.5,46.88 v -281.25 l 31.01,-23.25 93.99,-70.5 v 281.25 l -18.37,13.78"
         style="fill:#0044aa;fill-opacity:1;fill-rule:nonzero;stroke:none"
         transform="matrix(0.13333333,0,0,-0.13333333,0,1000)" />
      <path
         id="path79"
         d="m 2170.48,5309.64 -45.48,34.11 -62.5,46.87 v -281.25 l 32.36,-24.26 717.64,-538.24 v 281.25 l -642.02,481.52"
         style="fill:#002255;fill-opacity:1;fill-rule:nonzero;stroke:none"
         transform="matrix(0.13333333,0,0,-0.13333333,0,1000)" />
      <path
         id="path80"
         d="m 2500,3843.75 187.5,140.62 -500,375 V 4078.12 L 2500,3843.75"
         style="fill:#002255;fill-opacity:1;fill-rule:nonzero;stroke:none"
         transform="matrix(0.13333333,0,0,-0.13333333,0,1000)" />
      <path
         id="path81"
         d="m 3500,4875 -4.83,-3.62 -245.17,-183.88 79.21,-59.41 26.87,-20.15 268.92,-201.69 v 281.25 l 62.5,46.87 62.5,46.88 V 5062.5 L 3500,4875"
         style="fill:#80b3ff;fill-opacity:1;fill-rule:nonzero;stroke:none"
         transform="matrix(0.13333333,0,0,-0.13333333,0,1000)" />
      <path
         id="path82"
         d="M 4221.17,4478.38 4125,4406.25 3912.67,4247 3750,4125 v -281.25 l 307.57,230.68 254.93,191.19 96.17,72.13 91.33,68.5 v 281.25 l -278.83,-209.12"
         style="fill:#5599ff;fill-opacity:1;fill-rule:nonzero;stroke:none"
         transform="matrix(0.13333333,0,0,-0.13333333,0,1000)" />
      <path
         id="path83"
         d="M 3812.5,4640.62 3750,4593.75 V 4312.5 l 96.17,72.13 28.83,21.62 v 187.5 93.75 l -62.5,-46.88"
         style="fill:#5599ff;fill-opacity:1;fill-rule:nonzero;stroke:none"
         transform="matrix(0.13333333,0,0,-0.13333333,0,1000)" />
      <path
         id="path84"
         d="M 4062.5,4828.12 3750,5062.5 v -281.25 l 9.58,-7.19 115.42,-86.56 v -93.75 -187.5 l 125,93.75 250,187.5 -187.5,140.62"
         style="fill:#0044aa;fill-opacity:1;fill-rule:nonzero;stroke:none"
         transform="matrix(0.13333333,0,0,-0.13333333,0,1000)" />
      <path
         id="path85"
         d="M 3709.17,4624.37 3625,4687.5 v -281.25 l 8.55,-6.42 116.45,-87.33 v 281.25 l -40.83,30.62"
         style="fill:#0044aa;fill-opacity:1;fill-rule:nonzero;stroke:none"
         transform="matrix(0.13333333,0,0,-0.13333333,0,1000)" />
      <path
         id="path86"
         d="M 3750,4125 3214.53,4526.6 3000,4687.5 v -281.25 l 42.5,-31.88 520,-390 V 3750 h 62.5 l 125,93.75 V 4125"
         style="fill:#002255;fill-opacity:1;fill-rule:nonzero;stroke:none"
         transform="matrix(0.13333333,0,0,-0.13333333,0,1000)" />
      <path
         id="path108"
         d="m 5437.5,5578.12 230,172.5 145,108.75 -812.5,609.38 V 6187.5 l 437.5,-328.13 v -281.25"
         style="fill:#0044aa;fill-opacity:1;fill-rule:nonzero;stroke:none"
         transform="matrix(0.13333333,0,0,-0.13333333,0,1000)" />
      <path
         id="path109"
         d="m 5855,5703.75 -542.5,-406.88 v -281.25 l 730,547.5 20,15 v 281.25 L 5855,5703.75"
         style="fill:#80b3ff;fill-opacity:1;fill-rule:nonzero;stroke:none"
         transform="matrix(0.13333333,0,0,-0.13333333,0,1000)" />
      <path
         id="path110"
         d="M 5198.75,5680.31 5125,5625 l 187.5,-140.63 73.75,55.32 51.25,38.43 v 281.25 l -238.75,-179.06"
         style="fill:#5599ff;fill-opacity:1;fill-rule:nonzero;stroke:none"
         transform="matrix(0.13333333,0,0,-0.13333333,0,1000)" />
      <path
         id="path111"
         d="M 5000,7406.25 V 7125 l 312.5,-234.37 v 281.25 L 5000,7406.25"
         style="fill:#0044aa;fill-opacity:1;fill-rule:nonzero;stroke:none"
         transform="matrix(0.13333333,0,0,-0.13333333,0,1000)" />
      <path
         id="path112"
         d="m 7375,5625 -187.5,140.62 v -281.25 z"
         style="fill:#0044aa;fill-opacity:1;fill-rule:nonzero;stroke:none"
         transform="matrix(0.13333333,0,0,-0.13333333,0,1000)" />
      <path
         id="path113"
         d="M 5000,5531.25 V 5250 l 312.5,-234.38 v 281.25 L 5000,5531.25"
         style="fill:#0044aa;fill-opacity:1;fill-rule:nonzero;stroke:none"
         transform="matrix(0.13333333,0,0,-0.13333333,0,1000)" />
      <path
         id="path114"
         d="M 5312.5,6703.13 5000,6937.5 v -281.25 l 312.5,-234.38 v 281.26"
         style="fill:#002255;fill-opacity:1;fill-rule:nonzero;stroke:none"
         transform="matrix(0.13333333,0,0,-0.13333333,0,1000)" />
      <path
         id="path115"
         d="m 5000,4125 v -281.25 l 187.5,140.62 z"
         style="fill:#002255;fill-opacity:1;fill-rule:nonzero;stroke:none"
         transform="matrix(0.13333333,0,0,-0.13333333,0,1000)" />
      <path
         id="path116"
         d="m 5000,6000 v -281.25 l 187.5,140.62 z"
         style="fill:#002255;fill-opacity:1;fill-rule:nonzero;stroke:none"
         transform="matrix(0.13333333,0,0,-0.13333333,0,1000)" />
      <path
         id="path117"
         d="m 5312.5,4546.87 v 281.25 L 5000,5062.5 v -281.25 l 290,-217.5 22.5,-16.88"
         style="fill:#002255;fill-opacity:1;fill-rule:nonzero;stroke:none"
         transform="matrix(0.13333333,0,0,-0.13333333,0,1000)" />
      <path
         id="path118"
         d="M 6209.17,6499.37 6125,6562.5 v -281.25 l 8.54,-6.41 116.46,-87.34 v 281.25 l -40.83,30.62"
         style="fill:#0044aa;fill-opacity:1;fill-rule:nonzero;stroke:none"
         transform="matrix(0.13333333,0,0,-0.13333333,0,1000)" />
      <path
         id="path119"
         d="m 5542.5,6249.37 520,-390 V 5578.12 L 6250,5718.75 V 6000 L 5714.53,6401.6 5500,6562.5 v -281.25 l 42.5,-31.88"
         style="fill:#002255;fill-opacity:1;fill-rule:nonzero;stroke:none"
         transform="matrix(0.13333333,0,0,-0.13333333,0,1000)" />
      <path
         id="path120"
         d="m 8000,7500 h -62.5 v -46.87 z"
         style="fill:#0044aa;fill-opacity:1;fill-rule:nonzero;stroke:none"
         transform="matrix(0.13333333,0,0,-0.13333333,0,1000)" />
      <path
         id="path121"
         d="M 5312.5,6703.13 V 6421.87 L 5500,6281.25 v 281.25 l 370.17,277.62 4.83,3.63 334.83,251.13 40.17,30.12 187.5,-140.62 v 281.25 L 6750,7500 h -375 l -687.5,-515.62 -375,-281.25"
         style="fill:#5599ff;fill-opacity:1;fill-rule:nonzero;stroke:none"
         transform="matrix(0.13333333,0,0,-0.13333333,0,1000)" />
      <path
         id="path122"
         d="m 6000,6750 -4.83,-3.63 -245.17,-183.87 79.22,-59.41 26.86,-20.15 268.92,-201.69 v 281.25 l 62.5,46.88 62.5,46.87 V 6937.5 L 6000,6750"
         style="fill:#80b3ff;fill-opacity:1;fill-rule:nonzero;stroke:none"
         transform="matrix(0.13333333,0,0,-0.13333333,0,1000)" />
      <path
         id="path123"
         d="m 6687.5,7265.63 65.97,-49.48 88.7,-66.52 220.33,-165.25 v 281.25 l 125,93.75 V 7500 H 7000 l -107.5,-80.62 -205,-153.75"
         style="fill:#80b3ff;fill-opacity:1;fill-rule:nonzero;stroke:none"
         transform="matrix(0.13333333,0,0,-0.13333333,0,1000)" />
      <path
         id="path124"
         d="m 5500,7500 h -62.5 v -46.87 z"
         style="fill:#0044aa;fill-opacity:1;fill-rule:nonzero;stroke:none"
         transform="matrix(0.13333333,0,0,-0.13333333,0,1000)" />
      <path
         id="path125"
         d="m 6125,7500 h -62.5 v -46.87 z"
         style="fill:#002255;fill-opacity:1;fill-rule:nonzero;stroke:none"
         transform="matrix(0.13333333,0,0,-0.13333333,0,1000)" />
      <path
         id="path126"
         d="m 5312.5,7171.88 v -281.25 l 250,187.5 408.67,306.5 91.33,68.5 V 7500 H 5750 l -375,-281.25 -62.5,-46.87"
         style="fill:#80b3ff;fill-opacity:1;fill-rule:nonzero;stroke:none"
         transform="matrix(0.13333333,0,0,-0.13333333,0,1000)" />
      <path
         id="path127"
         d="m 7812.5,6890.63 730,547.5 20,15 V 7500 H 8250 l -437.5,-328.12 v -281.25"
         style="fill:#80b3ff;fill-opacity:1;fill-rule:nonzero;stroke:none"
         transform="matrix(0.13333333,0,0,-0.13333333,0,1000)" />
      <path
         id="path128"
         d="m 5375,7406.25 62.5,46.88 V 7500 H 5125 l 187.5,-140.62 62.5,46.87"
         style="fill:#5599ff;fill-opacity:1;fill-rule:nonzero;stroke:none"
         transform="matrix(0.13333333,0,0,-0.13333333,0,1000)" />
      <path
         id="path129"
         d="M 6937.5,6046.87 5312.5,4828.12 V 4546.87 L 5500,4406.25 v 281.25 l 312.5,234.37 379.83,284.88 57.67,43.25 187.5,-140.63 v 281.25 L 6750,5625 l 375,281.25 62.5,46.87 v 281.25 l -250,-187.5"
         style="fill:#5599ff;fill-opacity:1;fill-rule:nonzero;stroke:none"
         transform="matrix(0.13333333,0,0,-0.13333333,0,1000)" />
      <path
         id="path130"
         d="M 7312.5,7265.63 7500,7125 v 281.25 z"
         style="fill:#5599ff;fill-opacity:1;fill-rule:nonzero;stroke:none"
         transform="matrix(0.13333333,0,0,-0.13333333,0,1000)" />
      <path
         id="path131"
         d="m 7886.25,7414.69 51.25,38.44 V 7500 H 7625 l 187.5,-140.62 73.75,55.31"
         style="fill:#5599ff;fill-opacity:1;fill-rule:nonzero;stroke:none"
         transform="matrix(0.13333333,0,0,-0.13333333,0,1000)" />
      <path
         id="path132"
         d="M 7812.5,6421.87 8000,6281.25 v 281.25 l 312.5,234.38 379.83,284.87 57.67,43.25 187.5,-140.62 v 281.25 L 9250,7500 H 8875 L 7812.5,6703.13 v -281.26"
         style="fill:#5599ff;fill-opacity:1;fill-rule:nonzero;stroke:none"
         transform="matrix(0.13333333,0,0,-0.13333333,0,1000)" />
      <path
         id="path133"
         d="M 9875,7500 H 9687.5 V 7359.38 Z"
         style="fill:#0044aa;fill-opacity:1;fill-rule:nonzero;stroke:none"
         transform="matrix(0.13333333,0,0,-0.13333333,0,1000)" />
      <path
         id="path134"
         d="M 7254.34,7409.51 7375,7500 h -187.5 v -140.62 l 66.84,50.13"
         style="fill:#0044aa;fill-opacity:1;fill-rule:nonzero;stroke:none"
         transform="matrix(0.13333333,0,0,-0.13333333,0,1000)" />
      <path
         id="path135"
         d="M 7500,7406.25 V 7125 l 312.5,-234.37 v 281.25 L 7500,7406.25"
         style="fill:#0044aa;fill-opacity:1;fill-rule:nonzero;stroke:none"
         transform="matrix(0.13333333,0,0,-0.13333333,0,1000)" />
      <path
         id="path136"
         d="m 7500,5718.75 187.5,140.62 -500,375 V 5953.12 L 7500,5718.75"
         style="fill:#002255;fill-opacity:1;fill-rule:nonzero;stroke:none"
         transform="matrix(0.13333333,0,0,-0.13333333,0,1000)" />
      <path
         id="path137"
         d="m 9625,7218.75 -62.5,46.88 v -93.75 z"
         style="fill:#002255;fill-opacity:1;fill-rule:nonzero;stroke:none"
         transform="matrix(0.13333333,0,0,-0.13333333,0,1000)" />
      <path
         id="path138"
         d="m 7176.96,7179.77 -114.46,85.86 v -281.25 l 38.85,-29.14 688.65,-516.49 22.5,-16.88 v 281.26 l -635.54,476.64"
         style="fill:#002255;fill-opacity:1;fill-rule:nonzero;stroke:none"
         transform="matrix(0.13333333,0,0,-0.13333333,0,1000)" />
      <path
         id="path139"
         d="m 8625,7500 h -62.5 v -46.87 z"
         style="fill:#002255;fill-opacity:1;fill-rule:nonzero;stroke:none"
         transform="matrix(0.13333333,0,0,-0.13333333,0,1000)" />
      <path
         id="path140"
         d="M 6721.17,6353.37 6625,6281.25 6412.67,6122 6250,6000 v -281.25 l 307.57,230.68 254.93,191.19 96.17,72.13 91.33,68.5 v 281.25 l -278.83,-209.13"
         style="fill:#5599ff;fill-opacity:1;fill-rule:nonzero;stroke:none"
         transform="matrix(0.13333333,0,0,-0.13333333,0,1000)" />
      <path
         id="path141"
         d="M 6312.5,6515.63 6250,6468.75 V 6187.5 l 96.17,72.12 28.83,21.63 v 187.5 93.75 l -62.5,-46.87"
         style="fill:#5599ff;fill-opacity:1;fill-rule:nonzero;stroke:none"
         transform="matrix(0.13333333,0,0,-0.13333333,0,1000)" />
      <path
         id="path142"
         d="M 6562.5,6703.13 6250,6937.5 v -281.25 l 9.59,-7.19 115.41,-86.56 v -93.75 -187.5 l 125,93.75 250,187.5 -187.5,140.63"
         style="fill:#0044aa;fill-opacity:1;fill-rule:nonzero;stroke:none"
         transform="matrix(0.13333333,0,0,-0.13333333,0,1000)" />
      <path
         id="path143"
         d="m 9166.8,7093.65 -229.3,171.98 v -281.25 l 82.49,-61.87 105.01,-78.76 335,-251.25 40,-30 v -281.25 l 187.5,140.62 27.5,-20.62 285,-213.75 v 281.25 l -687.5,515.63 -145.7,109.27"
         style="fill:#0044aa;fill-opacity:1;fill-rule:nonzero;stroke:none"
         transform="matrix(0.13333333,0,0,-0.13333333,0,1000)" />
      <path
         id="path144"
         d="m 9687.5,5484.37 v 281.25 l -295,-221.25 -205,-153.75 65.97,-49.47 88.7,-66.52 220.33,-165.26 v 281.25 l 125,93.75"
         style="fill:#80b3ff;fill-opacity:1;fill-rule:nonzero;stroke:none"
         transform="matrix(0.13333333,0,0,-0.13333333,0,1000)" />
      <path
         id="path145"
         d="m 9250,6562.5 -187.5,140.63 -62.5,46.87 -250,187.5 v -281.25 l 32.04,-24.03 30.46,-22.84 62.5,-46.88 v -281.25 l 375,281.25"
         style="fill:#0044aa;fill-opacity:1;fill-rule:nonzero;stroke:none"
         transform="matrix(0.13333333,0,0,-0.13333333,0,1000)" />
      <path
         id="path146"
         d="M 8300.31,5868.52 8105,6015 l -42.5,31.87 -683.69,512.78 -203.81,152.85 -519.4,389.55 -218.1,163.58 v -281.25 l 71.29,-53.47 478.71,-359.03 12.5,-9.38 v -281.25 l 187.5,140.62 44.49,-33.36 643.01,-482.26 42.5,-31.88 20,-15 v -281.25 l 326.38,244.79 48.62,36.46 -12.19,9.15"
         style="fill:#0044aa;fill-opacity:1;fill-rule:nonzero;stroke:none"
         transform="matrix(0.13333333,0,0,-0.13333333,0,1000)" />
      <path
         id="path147"
         d="M 8437.5,6703.13 8250,6562.5 l 77.18,-57.88 62.03,-46.53 110.79,-83.09 125,-93.75 v 187.5 93.75 l 125,93.75 v 281.25 l -312.5,-234.37"
         style="fill:#80b3ff;fill-opacity:1;fill-rule:nonzero;stroke:none"
         transform="matrix(0.13333333,0,0,-0.13333333,0,1000)" />
      <path
         id="path148"
         d="m 9687.5,7500 v -140.62 l -125,-93.75 v -281.25 l -125,93.75 -89.6,67.2 -83.25,62.44 -77.15,57.86 L 9500,7500 h 187.5"
         style="fill:#80b3ff;fill-opacity:1;fill-rule:nonzero;stroke:none"
         transform="matrix(0.13333333,0,0,-0.13333333,0,1000)" />
      <path
         id="path149"
         d="M 8742.5,6005.62 8375,6281.25 8229.3,6390.53 8000,6562.5 v -281.25 l 82.49,-61.87 105.01,-78.76 367.5,-275.62 7.5,-5.63 V 5578.12 L 8750,5718.75 V 6000 l -7.5,5.62"
         style="fill:#002255;fill-opacity:1;fill-rule:nonzero;stroke:none"
         transform="matrix(0.13333333,0,0,-0.13333333,0,1000)" />
      <path
         id="path150"
         d="M 7687.5,5671.87 7625,5625 l 187.5,-140.63 62.5,46.88 62.5,46.87 v 281.25 l -250,-187.5"
         style="fill:#5599ff;fill-opacity:1;fill-rule:nonzero;stroke:none"
         transform="matrix(0.13333333,0,0,-0.13333333,0,1000)" />
      <path
         id="path151"
         d="M 9812.5,7265.63 10000,7125 v 281.25 z"
         style="fill:#5599ff;fill-opacity:1;fill-rule:nonzero;stroke:none"
         transform="matrix(0.13333333,0,0,-0.13333333,0,1000)" />
      <path
         id="path152"
         d="M 9812.5,5390.62 10000,5250 v 281.25 z"
         style="fill:#5599ff;fill-opacity:1;fill-rule:nonzero;stroke:none"
         transform="matrix(0.13333333,0,0,-0.13333333,0,1000)" />
      <path
         id="path153"
         d="M 9281.25,6398.44 8841.33,6068.5 8750,6000 v -281.25 l 145.34,109.01 573.41,430.05 31.25,23.44 v 281.25 l -218.75,-164.06"
         style="fill:#5599ff;fill-opacity:1;fill-rule:nonzero;stroke:none"
         transform="matrix(0.13333333,0,0,-0.13333333,0,1000)" />
      <path
         id="path154"
         d="M 8750,6468.75 V 6187.5 l 56.17,42.12 68.83,51.63 v 281.25 l -125,-93.75"
         style="fill:#5599ff;fill-opacity:1;fill-rule:nonzero;stroke:none"
         transform="matrix(0.13333333,0,0,-0.13333333,0,1000)" />
      <path
         id="path155"
         d="m 9675,4837.5 -519.4,389.55 -218.1,163.57 v -281.25 l 71.29,-53.46 478.71,-359.04 12.5,-9.37 v -281.25 l 187.5,140.62 44.49,-33.36 268.01,-201.01 v 281.25 l -121.19,90.9 L 9675,4837.5"
         style="fill:#0044aa;fill-opacity:1;fill-rule:nonzero;stroke:none"
         transform="matrix(0.13333333,0,0,-0.13333333,0,1000)" />
      <path
         id="path156"
         d="M 9754.34,5534.51 9875,5625 9687.5,5765.62 v -281.25 l 66.84,50.14"
         style="fill:#0044aa;fill-opacity:1;fill-rule:nonzero;stroke:none"
         transform="matrix(0.13333333,0,0,-0.13333333,0,1000)" />
      <path
         id="path157"
         d="m 8731.63,6482.53 -44.13,33.1 -62.5,46.87 v -281.25 l 31.01,-23.25 93.99,-70.5 v 281.25 l -18.37,13.78"
         style="fill:#0044aa;fill-opacity:1;fill-rule:nonzero;stroke:none"
         transform="matrix(0.13333333,0,0,-0.13333333,0,1000)" />
      <path
         id="path158"
         d="m 9625,7218.75 -62.5,-46.87 v -187.5 l 32.36,-24.27 405.14,-303.86 v 281.25 l -329.52,247.14 -45.48,34.11"
         style="fill:#002255;fill-opacity:1;fill-rule:nonzero;stroke:none"
         transform="matrix(0.13333333,0,0,-0.13333333,0,1000)" />
      <path
         id="path159"
         d="M 9687.5,4359.37 V 4078.12 L 10000,3843.75 V 4125 l -312.5,234.37"
         style="fill:#002255;fill-opacity:1;fill-rule:nonzero;stroke:none"
         transform="matrix(0.13333333,0,0,-0.13333333,0,1000)" />
      <path
         id="path160"
         d="M 9687.5,6234.37 V 5953.12 L 10000,5718.75 V 6000 l -312.5,234.37"
         style="fill:#002255;fill-opacity:1;fill-rule:nonzero;stroke:none"
         transform="matrix(0.13333333,0,0,-0.13333333,0,1000)" />
      <path
         id="path161"
         d="m 9562.5,5390.62 v -281.25 l 38.85,-29.13 398.65,-298.99 v 281.25 l -323.03,242.28 -114.47,85.84"
         style="fill:#002255;fill-opacity:1;fill-rule:nonzero;stroke:none"
         transform="matrix(0.13333333,0,0,-0.13333333,0,1000)" />
      <path
         id="path162"
         d="m 8312.5,3984.37 -1500,1125 -145.7,109.28 -229.3,171.97 v -281.25 l 82.49,-61.86 105.01,-78.76 335,-251.25 40,-30 v -281.25 l 187.5,140.62 27.5,-20.62 722.5,-541.88 V 3750 h 62.5 l 167.5,125.62 145,108.75"
         style="fill:#0044aa;fill-opacity:1;fill-rule:nonzero;stroke:none"
         transform="matrix(0.13333333,0,0,-0.13333333,0,1000)" />
      <path
         id="path163"
         d="m 8187.5,5109.37 -375,-281.25 V 4546.87 L 8000,4406.25 v 281.25 l 370.17,277.63 4.83,3.62 334.83,251.13 40.17,30.12 187.5,-140.63 v 281.25 l 330,247.5 420,315 v 281.25 l -1500,-1125"
         style="fill:#5599ff;fill-opacity:1;fill-rule:nonzero;stroke:none"
         transform="matrix(0.13333333,0,0,-0.13333333,0,1000)" />
      <path
         id="path164"
         d="m 7187.5,4078.12 v 281.25 L 6375,3750 h 375 l 17.5,13.12 420,315"
         style="fill:#5599ff;fill-opacity:1;fill-rule:nonzero;stroke:none"
         transform="matrix(0.13333333,0,0,-0.13333333,0,1000)" />
      <path
         id="path165"
         d="m 7000,3750 h 187.5 v 140.62 z"
         style="fill:#80b3ff;fill-opacity:1;fill-rule:nonzero;stroke:none"
         transform="matrix(0.13333333,0,0,-0.13333333,0,1000)" />
      <path
         id="path166"
         d="m 6750,4687.5 -187.5,140.62 -62.5,46.88 -250,187.5 v -281.25 l 32.04,-24.03 30.46,-22.85 62.5,-46.87 v -281.25 l 375,281.25"
         style="fill:#0044aa;fill-opacity:1;fill-rule:nonzero;stroke:none"
         transform="matrix(0.13333333,0,0,-0.13333333,0,1000)" />
      <path
         id="path167"
         d="m 5812.5,3984.37 -12.19,9.15 L 5605,4140 5562.5,4171.87 5000,4593.75 V 4312.5 l 375,-281.25 42.5,-31.88 20,-15 V 3750 h 62.5 l 263.88,197.91 48.62,36.46"
         style="fill:#0044aa;fill-opacity:1;fill-rule:nonzero;stroke:none"
         transform="matrix(0.13333333,0,0,-0.13333333,0,1000)" />
      <path
         id="path168"
         d="M 5937.5,4828.12 5750,4687.5 l 77.18,-57.88 62.03,-46.53 110.79,-83.09 125,-93.75 v 187.5 93.75 l 125,93.75 v 281.25 l -312.5,-234.38"
         style="fill:#80b3ff;fill-opacity:1;fill-rule:nonzero;stroke:none"
         transform="matrix(0.13333333,0,0,-0.13333333,0,1000)" />
      <path
         id="path169"
         d="m 7187.5,5765.62 v -281.25 l -125,-93.75 v -281.25 l -375,281.25 500,375"
         style="fill:#80b3ff;fill-opacity:1;fill-rule:nonzero;stroke:none"
         transform="matrix(0.13333333,0,0,-0.13333333,0,1000)" />
      <path
         id="path170"
         d="m 6250,4125 -7.5,5.62 -367.5,275.63 -145.7,109.28 -229.3,171.97 v -281.25 l 82.49,-61.87 105.01,-78.76 367.5,-275.62 7.5,-5.63 V 3750 h 62.5 l 125,93.75 V 4125"
         style="fill:#002255;fill-opacity:1;fill-rule:nonzero;stroke:none"
         transform="matrix(0.13333333,0,0,-0.13333333,0,1000)" />
      <path
         id="path171"
         d="M 5783.67,3775.25 5750,3750 h 312.5 v 234.37 l -278.83,-209.12"
         style="fill:#80b3ff;fill-opacity:1;fill-rule:nonzero;stroke:none"
         transform="matrix(0.13333333,0,0,-0.13333333,0,1000)" />
      <path
         id="path172"
         d="m 8283.67,5650.25 -408.67,-306.5 -62.5,-46.88 v -281.25 l 250,187.5 408.67,306.5 91.33,68.5 v 281.25 l -278.83,-209.12"
         style="fill:#80b3ff;fill-opacity:1;fill-rule:nonzero;stroke:none"
         transform="matrix(0.13333333,0,0,-0.13333333,0,1000)" />
      <path
         id="path173"
         d="M 8355,3828.75 8250,3750 h 312.5 v 234.37 L 8355,3828.75"
         style="fill:#80b3ff;fill-opacity:1;fill-rule:nonzero;stroke:none"
         transform="matrix(0.13333333,0,0,-0.13333333,0,1000)" />
      <path
         id="path174"
         d="M 5187.5,3796.87 5125,3750 h 312.5 v 234.37 l -250,-187.5"
         style="fill:#5599ff;fill-opacity:1;fill-rule:nonzero;stroke:none"
         transform="matrix(0.13333333,0,0,-0.13333333,0,1000)" />
      <path
         id="path175"
         d="M 7312.5,5390.62 7500,5250 v 281.25 z"
         style="fill:#5599ff;fill-opacity:1;fill-rule:nonzero;stroke:none"
         transform="matrix(0.13333333,0,0,-0.13333333,0,1000)" />
      <path
         id="path176"
         d="M 7698.75,3805.31 7625,3750 h 312.5 v 234.37 l -238.75,-179.06"
         style="fill:#5599ff;fill-opacity:1;fill-rule:nonzero;stroke:none"
         transform="matrix(0.13333333,0,0,-0.13333333,0,1000)" />
      <path
         id="path177"
         d="m 9687.5,4078.12 v 281.25 l -250,-187.5 L 8875,3750 h 375 l 375,281.25 62.5,46.87"
         style="fill:#5599ff;fill-opacity:1;fill-rule:nonzero;stroke:none"
         transform="matrix(0.13333333,0,0,-0.13333333,0,1000)" />
      <path
         id="path178"
         d="M 6781.25,4523.44 6341.33,4193.5 6250,4125 v -281.25 l 145.34,109 573.41,430.06 31.25,23.44 v 281.25 l -218.75,-164.06"
         style="fill:#5599ff;fill-opacity:1;fill-rule:nonzero;stroke:none"
         transform="matrix(0.13333333,0,0,-0.13333333,0,1000)" />
      <path
         id="path179"
         d="M 6250,4593.75 V 4312.5 l 56.17,42.13 68.83,51.62 v 281.25 l -125,-93.75"
         style="fill:#5599ff;fill-opacity:1;fill-rule:nonzero;stroke:none"
         transform="matrix(0.13333333,0,0,-0.13333333,0,1000)" />
      <path
         id="path180"
         d="M 7500,5531.25 V 5250 l 312.5,-234.38 v 281.25 L 7500,5531.25"
         style="fill:#0044aa;fill-opacity:1;fill-rule:nonzero;stroke:none"
         transform="matrix(0.13333333,0,0,-0.13333333,0,1000)" />
      <path
         id="path181"
         d="M 7187.5,3750 H 7375 l -187.5,140.62 z"
         style="fill:#0044aa;fill-opacity:1;fill-rule:nonzero;stroke:none"
         transform="matrix(0.13333333,0,0,-0.13333333,0,1000)" />
      <path
         id="path182"
         d="m 9500,3750 h 187.5 v 140.62 z"
         style="fill:#80b3ff;fill-opacity:1;fill-rule:nonzero;stroke:none"
         transform="matrix(0.13333333,0,0,-0.13333333,0,1000)" />
      <path
         id="path183"
         d="M 9687.5,3750 H 9875 l -187.5,140.62 z"
         style="fill:#0044aa;fill-opacity:1;fill-rule:nonzero;stroke:none"
         transform="matrix(0.13333333,0,0,-0.13333333,0,1000)" />
      <path
         id="path184"
         d="m 6231.63,4607.53 -44.13,33.09 -62.5,46.88 v -281.25 l 31.01,-23.25 93.99,-70.5 v 281.25 l -18.37,13.78"
         style="fill:#0044aa;fill-opacity:1;fill-rule:nonzero;stroke:none"
         transform="matrix(0.13333333,0,0,-0.13333333,0,1000)" />
      <path
         id="path185"
         d="m 7170.48,5309.64 -45.48,34.11 -62.5,46.87 v -281.25 l 32.36,-24.26 717.64,-538.24 v 281.25 l -642.02,481.52"
         style="fill:#002255;fill-opacity:1;fill-rule:nonzero;stroke:none"
         transform="matrix(0.13333333,0,0,-0.13333333,0,1000)" />
      <path
         id="path186"
         d="m 7500,3843.75 187.5,140.62 -500,375 V 4078.12 L 7500,3843.75"
         style="fill:#002255;fill-opacity:1;fill-rule:nonzero;stroke:none"
         transform="matrix(0.13333333,0,0,-0.13333333,0,1000)" />
      <path
         id="path187"
         d="m 8500,4875 -4.83,-3.62 -245.17,-183.88 79.22,-59.41 26.86,-20.15 268.92,-201.69 v 281.25 l 62.5,46.87 62.5,46.88 V 5062.5 L 8500,4875"
         style="fill:#80b3ff;fill-opacity:1;fill-rule:nonzero;stroke:none"
         transform="matrix(0.13333333,0,0,-0.13333333,0,1000)" />
      <path
         id="path188"
         d="M 9221.17,4478.38 9125,4406.25 8912.67,4247 8750,4125 v -281.25 l 307.57,230.68 254.93,191.19 96.17,72.13 91.33,68.5 v 281.25 l -278.83,-209.12"
         style="fill:#5599ff;fill-opacity:1;fill-rule:nonzero;stroke:none"
         transform="matrix(0.13333333,0,0,-0.13333333,0,1000)" />
      <path
         id="path189"
         d="M 8812.5,4640.62 8750,4593.75 V 4312.5 l 96.17,72.13 28.83,21.62 v 187.5 93.75 l -62.5,-46.88"
         style="fill:#5599ff;fill-opacity:1;fill-rule:nonzero;stroke:none"
         transform="matrix(0.13333333,0,0,-0.13333333,0,1000)" />
      <path
         id="path190"
         d="M 9062.5,4828.12 8750,5062.5 v -281.25 l 9.59,-7.19 115.41,-86.56 v -93.75 -187.5 l 125,93.75 250,187.5 -187.5,140.62"
         style="fill:#0044aa;fill-opacity:1;fill-rule:nonzero;stroke:none"
         transform="matrix(0.13333333,0,0,-0.13333333,0,1000)" />
      <path
         id="path191"
         d="M 8709.17,4624.37 8625,4687.5 v -281.25 l 8.54,-6.42 116.46,-87.33 v 281.25 l -40.83,30.62"
         style="fill:#0044aa;fill-opacity:1;fill-rule:nonzero;stroke:none"
         transform="matrix(0.13333333,0,0,-0.13333333,0,1000)" />
      <path
         id="path192"
         d="M 8750,4125 8214.53,4526.6 8000,4687.5 v -281.25 l 42.5,-31.88 520,-390 V 3750 h 62.5 l 125,93.75 V 4125"
         style="fill:#002255;fill-opacity:1;fill-rule:nonzero;stroke:none"
         transform="matrix(0.13333333,0,0,-0.13333333,0,1000)" />
      <path
         id="path214"
         d="m 5437.5,1828.12 230,172.5 145,108.75 -812.5,609.38 V 2437.5 l 437.5,-328.13 v -281.25"
         style="fill:#0044aa;fill-opacity:1;fill-rule:nonzero;stroke:none"
         transform="matrix(0.13333333,0,0,-0.13333333,0,1000)" />
      <path
         id="path215"
         d="m 5855,1953.75 -542.5,-406.88 v -281.25 l 730,547.5 20,15 v 281.25 L 5855,1953.75"
         style="fill:#80b3ff;fill-opacity:1;fill-rule:nonzero;stroke:none"
         transform="matrix(0.13333333,0,0,-0.13333333,0,1000)" />
      <path
         id="path216"
         d="M 5198.75,1930.31 5125,1875 l 187.5,-140.63 73.75,55.32 51.25,38.43 v 281.25 l -238.75,-179.06"
         style="fill:#5599ff;fill-opacity:1;fill-rule:nonzero;stroke:none"
         transform="matrix(0.13333333,0,0,-0.13333333,0,1000)" />
      <path
         id="path217"
         d="M 5000,3656.25 V 3375 l 312.5,-234.38 v 281.25 L 5000,3656.25"
         style="fill:#0044aa;fill-opacity:1;fill-rule:nonzero;stroke:none"
         transform="matrix(0.13333333,0,0,-0.13333333,0,1000)" />
      <path
         id="path218"
         d="m 7375,1875 -187.5,140.62 v -281.25 z"
         style="fill:#0044aa;fill-opacity:1;fill-rule:nonzero;stroke:none"
         transform="matrix(0.13333333,0,0,-0.13333333,0,1000)" />
      <path
         id="path219"
         d="M 5000,1781.25 V 1500 l 312.5,-234.38 v 281.25 L 5000,1781.25"
         style="fill:#0044aa;fill-opacity:1;fill-rule:nonzero;stroke:none"
         transform="matrix(0.13333333,0,0,-0.13333333,0,1000)" />
      <path
         id="path220"
         d="M 5312.5,2953.12 5000,3187.5 v -281.25 l 312.5,-234.38 v 281.25"
         style="fill:#002255;fill-opacity:1;fill-rule:nonzero;stroke:none"
         transform="matrix(0.13333333,0,0,-0.13333333,0,1000)" />
      <path
         id="path221"
         d="M 5000,375 V 93.75 l 187.5,140.621 z"
         style="fill:#002255;fill-opacity:1;fill-rule:nonzero;stroke:none"
         transform="matrix(0.13333333,0,0,-0.13333333,0,1000)" />
      <path
         id="path222"
         d="m 5000,2250 v -281.25 l 187.5,140.62 z"
         style="fill:#002255;fill-opacity:1;fill-rule:nonzero;stroke:none"
         transform="matrix(0.13333333,0,0,-0.13333333,0,1000)" />
      <path
         id="path223"
         d="M 5312.5,796.871 V 1078.12 L 5000,1312.5 v -281.25 l 290,-217.5 22.5,-16.879"
         style="fill:#002255;fill-opacity:1;fill-rule:nonzero;stroke:none"
         transform="matrix(0.13333333,0,0,-0.13333333,0,1000)" />
      <path
         id="path224"
         d="M 6209.17,2749.37 6125,2812.5 v -281.25 l 8.54,-6.42 116.46,-87.33 v 281.25 l -40.83,30.62"
         style="fill:#0044aa;fill-opacity:1;fill-rule:nonzero;stroke:none"
         transform="matrix(0.13333333,0,0,-0.13333333,0,1000)" />
      <path
         id="path225"
         d="m 5542.5,2499.37 520,-390 V 1828.12 L 6250,1968.75 V 2250 L 5714.53,2651.6 5500,2812.5 v -281.25 l 42.5,-31.88"
         style="fill:#002255;fill-opacity:1;fill-rule:nonzero;stroke:none"
         transform="matrix(0.13333333,0,0,-0.13333333,0,1000)" />
      <path
         id="path226"
         d="m 8000,3750 h -62.5 v -46.88 z"
         style="fill:#0044aa;fill-opacity:1;fill-rule:nonzero;stroke:none"
         transform="matrix(0.13333333,0,0,-0.13333333,0,1000)" />
      <path
         id="path227"
         d="M 5312.5,2953.12 V 2671.87 L 5500,2531.25 v 281.25 l 370.17,277.63 4.83,3.62 334.83,251.12 40.17,30.13 187.5,-140.63 v 281.25 L 6750,3750 h -375 l -687.5,-515.63 -375,-281.25"
         style="fill:#5599ff;fill-opacity:1;fill-rule:nonzero;stroke:none"
         transform="matrix(0.13333333,0,0,-0.13333333,0,1000)" />
      <path
         id="path228"
         d="m 6000,3000 -4.83,-3.62 -245.17,-183.88 79.22,-59.41 26.86,-20.15 268.92,-201.69 v 281.25 l 62.5,46.87 62.5,46.88 V 3187.5 L 6000,3000"
         style="fill:#80b3ff;fill-opacity:1;fill-rule:nonzero;stroke:none"
         transform="matrix(0.13333333,0,0,-0.13333333,0,1000)" />
      <path
         id="path229"
         d="m 6687.5,3515.62 65.97,-49.48 88.7,-66.51 220.33,-165.26 v 281.25 l 125,93.75 V 3750 H 7000 l -107.5,-80.63 -205,-153.75"
         style="fill:#80b3ff;fill-opacity:1;fill-rule:nonzero;stroke:none"
         transform="matrix(0.13333333,0,0,-0.13333333,0,1000)" />
      <path
         id="path230"
         d="m 5500,3750 h -62.5 v -46.88 z"
         style="fill:#0044aa;fill-opacity:1;fill-rule:nonzero;stroke:none"
         transform="matrix(0.13333333,0,0,-0.13333333,0,1000)" />
      <path
         id="path231"
         d="m 6125,3750 h -62.5 v -46.88 z"
         style="fill:#002255;fill-opacity:1;fill-rule:nonzero;stroke:none"
         transform="matrix(0.13333333,0,0,-0.13333333,0,1000)" />
      <path
         id="path232"
         d="m 5312.5,3421.87 v -281.25 l 250,187.5 408.67,306.51 91.33,68.49 V 3750 H 5750 l -375,-281.25 -62.5,-46.88"
         style="fill:#80b3ff;fill-opacity:1;fill-rule:nonzero;stroke:none"
         transform="matrix(0.13333333,0,0,-0.13333333,0,1000)" />
      <path
         id="path233"
         d="m 7812.5,3140.62 730,547.5 20,15 V 3750 H 8250 l -437.5,-328.13 v -281.25"
         style="fill:#80b3ff;fill-opacity:1;fill-rule:nonzero;stroke:none"
         transform="matrix(0.13333333,0,0,-0.13333333,0,1000)" />
      <path
         id="path234"
         d="m 5375,3656.25 62.5,46.87 V 3750 H 5125 l 187.5,-140.63 62.5,46.88"
         style="fill:#5599ff;fill-opacity:1;fill-rule:nonzero;stroke:none"
         transform="matrix(0.13333333,0,0,-0.13333333,0,1000)" />
      <path
         id="path235"
         d="M 6937.5,2296.87 5312.5,1078.12 V 796.871 L 5500,656.25 V 937.5 l 312.5,234.37 379.83,284.88 57.67,43.25 187.5,-140.63 v 281.25 L 6750,1875 l 375,281.25 62.5,46.87 v 281.25 l -250,-187.5"
         style="fill:#5599ff;fill-opacity:1;fill-rule:nonzero;stroke:none"
         transform="matrix(0.13333333,0,0,-0.13333333,0,1000)" />
      <path
         id="path236"
         d="M 7312.5,3515.62 7500,3375 v 281.25 z"
         style="fill:#5599ff;fill-opacity:1;fill-rule:nonzero;stroke:none"
         transform="matrix(0.13333333,0,0,-0.13333333,0,1000)" />
      <path
         id="path237"
         d="m 7886.25,3664.69 51.25,38.43 V 3750 H 7625 l 187.5,-140.63 73.75,55.32"
         style="fill:#5599ff;fill-opacity:1;fill-rule:nonzero;stroke:none"
         transform="matrix(0.13333333,0,0,-0.13333333,0,1000)" />
      <path
         id="path238"
         d="M 7812.5,2671.87 8000,2531.25 v 281.25 l 312.5,234.37 379.83,284.88 57.67,43.25 187.5,-140.63 v 281.25 L 9250,3750 H 8875 L 7812.5,2953.12 v -281.25"
         style="fill:#5599ff;fill-opacity:1;fill-rule:nonzero;stroke:none"
         transform="matrix(0.13333333,0,0,-0.13333333,0,1000)" />
      <path
         id="path239"
         d="M 9875,3750 H 9687.5 V 3609.37 Z"
         style="fill:#0044aa;fill-opacity:1;fill-rule:nonzero;stroke:none"
         transform="matrix(0.13333333,0,0,-0.13333333,0,1000)" />
      <path
         id="path240"
         d="M 7254.34,3659.5 7375,3750 h -187.5 v -140.63 l 66.84,50.13"
         style="fill:#0044aa;fill-opacity:1;fill-rule:nonzero;stroke:none"
         transform="matrix(0.13333333,0,0,-0.13333333,0,1000)" />
      <path
         id="path241"
         d="M 7500,3656.25 V 3375 l 312.5,-234.38 v 281.25 L 7500,3656.25"
         style="fill:#0044aa;fill-opacity:1;fill-rule:nonzero;stroke:none"
         transform="matrix(0.13333333,0,0,-0.13333333,0,1000)" />
      <path
         id="path242"
         d="m 7500,1968.75 187.5,140.62 -500,375 V 2203.12 L 7500,1968.75"
         style="fill:#002255;fill-opacity:1;fill-rule:nonzero;stroke:none"
         transform="matrix(0.13333333,0,0,-0.13333333,0,1000)" />
      <path
         id="path243"
         d="m 9625,3468.75 -62.5,46.87 v -93.75 z"
         style="fill:#002255;fill-opacity:1;fill-rule:nonzero;stroke:none"
         transform="matrix(0.13333333,0,0,-0.13333333,0,1000)" />
      <path
         id="path244"
         d="m 7176.96,3429.78 -114.46,85.84 v -281.25 l 38.85,-29.13 688.65,-516.49 22.5,-16.88 v 281.25 l -635.54,476.66"
         style="fill:#002255;fill-opacity:1;fill-rule:nonzero;stroke:none"
         transform="matrix(0.13333333,0,0,-0.13333333,0,1000)" />
      <path
         id="path245"
         d="m 8625,3750 h -62.5 v -46.88 z"
         style="fill:#002255;fill-opacity:1;fill-rule:nonzero;stroke:none"
         transform="matrix(0.13333333,0,0,-0.13333333,0,1000)" />
      <path
         id="path246"
         d="M 6721.17,2603.38 6625,2531.25 6412.67,2372 6250,2250 v -281.25 l 307.57,230.68 254.93,191.19 96.17,72.13 91.33,68.5 v 281.25 l -278.83,-209.12"
         style="fill:#5599ff;fill-opacity:1;fill-rule:nonzero;stroke:none"
         transform="matrix(0.13333333,0,0,-0.13333333,0,1000)" />
      <path
         id="path247"
         d="M 6312.5,2765.62 6250,2718.75 V 2437.5 l 96.17,72.13 28.83,21.62 v 187.5 93.75 l -62.5,-46.88"
         style="fill:#5599ff;fill-opacity:1;fill-rule:nonzero;stroke:none"
         transform="matrix(0.13333333,0,0,-0.13333333,0,1000)" />
      <path
         id="path248"
         d="M 6562.5,2953.12 6250,3187.5 v -281.25 l 9.59,-7.19 115.41,-86.56 v -93.75 -187.5 l 125,93.75 250,187.5 -187.5,140.62"
         style="fill:#0044aa;fill-opacity:1;fill-rule:nonzero;stroke:none"
         transform="matrix(0.13333333,0,0,-0.13333333,0,1000)" />
      <path
         id="path249"
         d="m 9166.8,3343.65 -229.3,171.97 v -281.25 l 82.49,-61.86 105.01,-78.76 335,-251.25 40,-30 v -281.25 l 187.5,140.62 27.5,-20.62 285,-213.75 v 281.25 l -687.5,515.62 -145.7,109.28"
         style="fill:#0044aa;fill-opacity:1;fill-rule:nonzero;stroke:none"
         transform="matrix(0.13333333,0,0,-0.13333333,0,1000)" />
      <path
         id="path250"
         d="m 9687.5,1734.37 v 281.25 l -295,-221.25 -205,-153.75 65.97,-49.48 88.7,-66.51 220.33,-165.26 v 281.25 l 125,93.75"
         style="fill:#80b3ff;fill-opacity:1;fill-rule:nonzero;stroke:none"
         transform="matrix(0.13333333,0,0,-0.13333333,0,1000)" />
      <path
         id="path251"
         d="m 9250,2812.5 -187.5,140.62 -62.5,46.88 -250,187.5 v -281.25 l 32.04,-24.03 30.46,-22.85 62.5,-46.87 v -281.25 l 375,281.25"
         style="fill:#0044aa;fill-opacity:1;fill-rule:nonzero;stroke:none"
         transform="matrix(0.13333333,0,0,-0.13333333,0,1000)" />
      <path
         id="path252"
         d="M 8300.31,2118.52 8105,2265 l -42.5,31.87 -683.69,512.78 -203.81,152.85 -519.4,389.55 -218.1,163.57 v -281.25 l 71.29,-53.46 478.71,-359.04 12.5,-9.37 v -281.25 l 187.5,140.62 44.49,-33.36 643.01,-482.26 42.5,-31.88 20,-15 v -281.25 l 326.38,244.79 48.62,36.46 -12.19,9.15"
         style="fill:#0044aa;fill-opacity:1;fill-rule:nonzero;stroke:none"
         transform="matrix(0.13333333,0,0,-0.13333333,0,1000)" />
      <path
         id="path253"
         d="M 8437.5,2953.12 8250,2812.5 l 77.18,-57.88 62.03,-46.53 110.79,-83.09 125,-93.75 v 187.5 93.75 l 125,93.75 v 281.25 l -312.5,-234.38"
         style="fill:#80b3ff;fill-opacity:1;fill-rule:nonzero;stroke:none"
         transform="matrix(0.13333333,0,0,-0.13333333,0,1000)" />
      <path
         id="path254"
         d="m 9687.5,3750 v -140.63 l -125,-93.75 v -281.25 l -125,93.75 -89.6,67.2 -83.25,62.44 -77.15,57.86 L 9500,3750 h 187.5"
         style="fill:#80b3ff;fill-opacity:1;fill-rule:nonzero;stroke:none"
         transform="matrix(0.13333333,0,0,-0.13333333,0,1000)" />
      <path
         id="path255"
         d="M 8742.5,2255.62 8375,2531.25 8229.3,2640.53 8000,2812.5 v -281.25 l 82.49,-61.87 105.01,-78.76 367.5,-275.62 7.5,-5.63 V 1828.12 L 8750,1968.75 V 2250 l -7.5,5.62"
         style="fill:#002255;fill-opacity:1;fill-rule:nonzero;stroke:none"
         transform="matrix(0.13333333,0,0,-0.13333333,0,1000)" />
      <path
         id="path256"
         d="M 7687.5,1921.87 7625,1875 l 187.5,-140.63 62.5,46.88 62.5,46.87 v 281.25 l -250,-187.5"
         style="fill:#5599ff;fill-opacity:1;fill-rule:nonzero;stroke:none"
         transform="matrix(0.13333333,0,0,-0.13333333,0,1000)" />
      <path
         id="path257"
         d="M 9812.5,3515.62 10000,3375 v 281.25 z"
         style="fill:#5599ff;fill-opacity:1;fill-rule:nonzero;stroke:none"
         transform="matrix(0.13333333,0,0,-0.13333333,0,1000)" />
      <path
         id="path258"
         d="M 9812.5,1640.62 10000,1500 v 281.25 z"
         style="fill:#5599ff;fill-opacity:1;fill-rule:nonzero;stroke:none"
         transform="matrix(0.13333333,0,0,-0.13333333,0,1000)" />
      <path
         id="path259"
         d="M 9281.25,2648.44 8841.33,2318.5 8750,2250 v -281.25 l 145.34,109 573.41,430.06 31.25,23.44 v 281.25 l -218.75,-164.06"
         style="fill:#5599ff;fill-opacity:1;fill-rule:nonzero;stroke:none"
         transform="matrix(0.13333333,0,0,-0.13333333,0,1000)" />
      <path
         id="path260"
         d="M 8750,2718.75 V 2437.5 l 56.17,42.13 68.83,51.62 v 281.25 l -125,-93.75"
         style="fill:#5599ff;fill-opacity:1;fill-rule:nonzero;stroke:none"
         transform="matrix(0.13333333,0,0,-0.13333333,0,1000)" />
      <path
         id="path261"
         d="m 9675,1087.5 -519.4,389.55 -218.1,163.57 v -281.25 l 71.29,-53.46 L 9487.5,946.871 9500,937.5 V 656.25 l 187.5,140.621 44.49,-33.359 L 10000,562.5 V 843.75 L 9878.81,934.652 9675,1087.5"
         style="fill:#0044aa;fill-opacity:1;fill-rule:nonzero;stroke:none"
         transform="matrix(0.13333333,0,0,-0.13333333,0,1000)" />
      <path
         id="path262"
         d="M 9754.34,1784.5 9875,1875 9687.5,2015.62 v -281.25 l 66.84,50.13"
         style="fill:#0044aa;fill-opacity:1;fill-rule:nonzero;stroke:none"
         transform="matrix(0.13333333,0,0,-0.13333333,0,1000)" />
      <path
         id="path263"
         d="m 8731.63,2732.53 -44.13,33.09 -62.5,46.88 v -281.25 l 31.01,-23.25 93.99,-70.5 v 281.25 l -18.37,13.78"
         style="fill:#0044aa;fill-opacity:1;fill-rule:nonzero;stroke:none"
         transform="matrix(0.13333333,0,0,-0.13333333,0,1000)" />
      <path
         id="path264"
         d="m 9625,3468.75 -62.5,-46.88 v -187.5 l 32.36,-24.26 405.14,-303.86 v 281.25 l -329.52,247.14 -45.48,34.11"
         style="fill:#002255;fill-opacity:1;fill-rule:nonzero;stroke:none"
         transform="matrix(0.13333333,0,0,-0.13333333,0,1000)" />
      <path
         id="path265"
         d="M 9687.5,609.371 V 328.121 L 10000,93.75 V 375 l -312.5,234.371"
         style="fill:#002255;fill-opacity:1;fill-rule:nonzero;stroke:none"
         transform="matrix(0.13333333,0,0,-0.13333333,0,1000)" />
      <path
         id="path266"
         d="M 9687.5,2484.37 V 2203.12 L 10000,1968.75 V 2250 l -312.5,234.37"
         style="fill:#002255;fill-opacity:1;fill-rule:nonzero;stroke:none"
         transform="matrix(0.13333333,0,0,-0.13333333,0,1000)" />
      <path
         id="path267"
         d="m 9562.5,1640.62 v -281.25 l 38.85,-29.13 398.65,-298.99 v 281.25 l -323.03,242.28 -114.47,85.84"
         style="fill:#002255;fill-opacity:1;fill-rule:nonzero;stroke:none"
         transform="matrix(0.13333333,0,0,-0.13333333,0,1000)" />
      <path
         id="path268"
         d="m 8312.5,234.371 -1500,1124.999 -145.7,109.28 -229.3,171.97 v -281.25 l 82.49,-61.86 105.01,-78.76 335,-251.25 40,-30 V 656.25 L 7187.5,796.871 7215,776.25 7937.5,234.371 V 0 h 62.5 l 167.5,125.621 145,108.75"
         style="fill:#0044aa;fill-opacity:1;fill-rule:nonzero;stroke:none"
         transform="matrix(0.13333333,0,0,-0.13333333,0,1000)" />
      <path
         id="path269"
         d="m 8187.5,1359.37 -375,-281.25 V 796.871 L 8000,656.25 V 937.5 l 370.17,277.63 4.83,3.62 334.83,251.12 40.17,30.13 187.5,-140.63 v 281.25 l 330,247.5 420,315 v 281.25 l -1500,-1125"
         style="fill:#5599ff;fill-opacity:1;fill-rule:nonzero;stroke:none"
         transform="matrix(0.13333333,0,0,-0.13333333,0,1000)" />
      <path
         id="path270"
         d="m 7187.5,328.121 v 281.25 L 6375,0 h 375 l 17.5,13.1211 420,314.9999"
         style="fill:#5599ff;fill-opacity:1;fill-rule:nonzero;stroke:none"
         transform="matrix(0.13333333,0,0,-0.13333333,0,1000)" />
      <path
         id="path271"
         d="m 7000,0 h 187.5 v 140.621 z"
         style="fill:#80b3ff;fill-opacity:1;fill-rule:nonzero;stroke:none"
         transform="matrix(0.13333333,0,0,-0.13333333,0,1000)" />
      <path
         id="path272"
         d="m 6750,937.5 -187.5,140.62 -62.5,46.88 -250,187.5 v -281.25 l 32.04,-24.03 30.46,-22.849 L 6375,937.5 V 656.25 l 375,281.25"
         style="fill:#0044aa;fill-opacity:1;fill-rule:nonzero;stroke:none"
         transform="matrix(0.13333333,0,0,-0.13333333,0,1000)" />
      <path
         id="path273"
         d="M 5812.5,234.371 5800.31,243.52 5605,390 5562.5,421.871 5000,843.75 V 562.5 l 375,-281.25 42.5,-31.879 20,-15 V 0 h 62.5 l 263.88,197.91 48.62,36.461"
         style="fill:#0044aa;fill-opacity:1;fill-rule:nonzero;stroke:none"
         transform="matrix(0.13333333,0,0,-0.13333333,0,1000)" />
      <path
         id="path274"
         d="M 5937.5,1078.12 5750,937.5 5827.18,879.621 5889.21,833.09 6000,750 6125,656.25 v 187.5 93.75 l 125,93.75 v 281.25 l -312.5,-234.38"
         style="fill:#80b3ff;fill-opacity:1;fill-rule:nonzero;stroke:none"
         transform="matrix(0.13333333,0,0,-0.13333333,0,1000)" />
      <path
         id="path275"
         d="m 7187.5,2015.62 v -281.25 l -125,-93.75 v -281.25 l -375,281.25 500,375"
         style="fill:#80b3ff;fill-opacity:1;fill-rule:nonzero;stroke:none"
         transform="matrix(0.13333333,0,0,-0.13333333,0,1000)" />
      <path
         id="path276"
         d="m 6250,375 -7.5,5.621 L 5875,656.25 5729.3,765.531 5500,937.5 V 656.25 L 5582.49,594.379 5687.5,515.621 6055,240 l 7.5,-5.629 V 0 h 62.5 l 125,93.75 V 375"
         style="fill:#002255;fill-opacity:1;fill-rule:nonzero;stroke:none"
         transform="matrix(0.13333333,0,0,-0.13333333,0,1000)" />
      <path
         id="path277"
         d="M 5783.67,25.25 5750,0 h 312.5 V 234.371 L 5783.67,25.25"
         style="fill:#80b3ff;fill-opacity:1;fill-rule:nonzero;stroke:none"
         transform="matrix(0.13333333,0,0,-0.13333333,0,1000)" />
      <path
         id="path278"
         d="m 8283.67,1900.25 -408.67,-306.5 -62.5,-46.88 v -281.25 l 250,187.5 408.67,306.51 91.33,68.49 v 281.25 l -278.83,-209.12"
         style="fill:#80b3ff;fill-opacity:1;fill-rule:nonzero;stroke:none"
         transform="matrix(0.13333333,0,0,-0.13333333,0,1000)" />
      <path
         id="path279"
         d="M 8355,78.75 8250,0 h 312.5 V 234.371 L 8355,78.75"
         style="fill:#80b3ff;fill-opacity:1;fill-rule:nonzero;stroke:none"
         transform="matrix(0.13333333,0,0,-0.13333333,0,1000)" />
      <path
         id="path280"
         d="M 5187.5,46.8711 5125,0 h 312.5 v 234.371 l -250,-187.4999"
         style="fill:#5599ff;fill-opacity:1;fill-rule:nonzero;stroke:none"
         transform="matrix(0.13333333,0,0,-0.13333333,0,1000)" />
      <path
         id="path281"
         d="M 7312.5,1640.62 7500,1500 v 281.25 z"
         style="fill:#5599ff;fill-opacity:1;fill-rule:nonzero;stroke:none"
         transform="matrix(0.13333333,0,0,-0.13333333,0,1000)" />
      <path
         id="path282"
         d="M 7698.75,55.3086 7625,0 h 312.5 V 234.371 L 7698.75,55.3086"
         style="fill:#5599ff;fill-opacity:1;fill-rule:nonzero;stroke:none"
         transform="matrix(0.13333333,0,0,-0.13333333,0,1000)" />
      <path
         id="path283"
         d="m 9687.5,328.121 v 281.25 l -250,-187.5 L 8875,0 h 375 l 375,281.25 62.5,46.871"
         style="fill:#5599ff;fill-opacity:1;fill-rule:nonzero;stroke:none"
         transform="matrix(0.13333333,0,0,-0.13333333,0,1000)" />
      <path
         id="path284"
         d="M 6781.25,773.441 6341.33,443.5 6250,375 V 93.75 l 145.34,109 573.41,430.059 31.25,23.441 V 937.5 L 6781.25,773.441"
         style="fill:#5599ff;fill-opacity:1;fill-rule:nonzero;stroke:none"
         transform="matrix(0.13333333,0,0,-0.13333333,0,1000)" />
      <path
         id="path285"
         d="M 6250,843.75 V 562.5 l 56.17,42.129 68.83,51.621 V 937.5 l -125,-93.75"
         style="fill:#5599ff;fill-opacity:1;fill-rule:nonzero;stroke:none"
         transform="matrix(0.13333333,0,0,-0.13333333,0,1000)" />
      <path
         id="path286"
         d="M 7500,1781.25 V 1500 l 312.5,-234.38 v 281.25 L 7500,1781.25"
         style="fill:#0044aa;fill-opacity:1;fill-rule:nonzero;stroke:none"
         transform="matrix(0.13333333,0,0,-0.13333333,0,1000)" />
      <path
         id="path287"
         d="M 7187.5,0 H 7375 l -187.5,140.621 z"
         style="fill:#0044aa;fill-opacity:1;fill-rule:nonzero;stroke:none"
         transform="matrix(0.13333333,0,0,-0.13333333,0,1000)" />
      <path
         id="path288"
         d="m 9500,0 h 187.5 v 140.621 z"
         style="fill:#80b3ff;fill-opacity:1;fill-rule:nonzero;stroke:none"
         transform="matrix(0.13333333,0,0,-0.13333333,0,1000)" />
      <path
         id="path289"
         d="M 9687.5,0 H 9875 l -187.5,140.621 z"
         style="fill:#0044aa;fill-opacity:1;fill-rule:nonzero;stroke:none"
         transform="matrix(0.13333333,0,0,-0.13333333,0,1000)" />
      <path
         id="path290"
         d="M 6231.63,857.531 6187.5,890.621 6125,937.5 V 656.25 L 6156.01,633 6250,562.5 v 281.25 l -18.37,13.781"
         style="fill:#0044aa;fill-opacity:1;fill-rule:nonzero;stroke:none"
         transform="matrix(0.13333333,0,0,-0.13333333,0,1000)" />
      <path
         id="path291"
         d="m 7170.48,1559.64 -45.48,34.11 -62.5,46.87 v -281.25 l 32.36,-24.26 717.64,-538.239 v 281.249 l -642.02,481.52"
         style="fill:#002255;fill-opacity:1;fill-rule:nonzero;stroke:none"
         transform="matrix(0.13333333,0,0,-0.13333333,0,1000)" />
      <path
         id="path292"
         d="m 7500,93.75 187.5,140.621 -500,375 V 328.121 L 7500,93.75"
         style="fill:#002255;fill-opacity:1;fill-rule:nonzero;stroke:none"
         transform="matrix(0.13333333,0,0,-0.13333333,0,1000)" />
      <path
         id="path293"
         d="m 8500,1125 -4.83,-3.62 L 8250,937.5 8329.22,878.09 8356.08,857.941 8625,656.25 V 937.5 l 62.5,46.871 62.5,46.879 V 1312.5 L 8500,1125"
         style="fill:#80b3ff;fill-opacity:1;fill-rule:nonzero;stroke:none"
         transform="matrix(0.13333333,0,0,-0.13333333,0,1000)" />
      <path
         id="path294"
         d="M 9221.17,728.379 9125,656.25 8912.67,497 8750,375 V 93.75 l 307.57,230.68 254.93,191.191 96.17,72.129 91.33,68.5 V 937.5 L 9221.17,728.379"
         style="fill:#5599ff;fill-opacity:1;fill-rule:nonzero;stroke:none"
         transform="matrix(0.13333333,0,0,-0.13333333,0,1000)" />
      <path
         id="path295"
         d="M 8812.5,890.621 8750,843.75 V 562.5 l 96.17,72.129 28.83,21.621 v 187.5 93.75 l -62.5,-46.879"
         style="fill:#5599ff;fill-opacity:1;fill-rule:nonzero;stroke:none"
         transform="matrix(0.13333333,0,0,-0.13333333,0,1000)" />
      <path
         id="path296"
         d="M 9062.5,1078.12 8750,1312.5 v -281.25 l 9.59,-7.19 L 8875,937.5 v -93.75 -187.5 l 125,93.75 250,187.5 -187.5,140.62"
         style="fill:#0044aa;fill-opacity:1;fill-rule:nonzero;stroke:none"
         transform="matrix(0.13333333,0,0,-0.13333333,0,1000)" />
      <path
         id="path297"
         d="M 8709.17,874.371 8625,937.5 V 656.25 l 8.54,-6.422 L 8750,562.5 v 281.25 l -40.83,30.621"
         style="fill:#0044aa;fill-opacity:1;fill-rule:nonzero;stroke:none"
         transform="matrix(0.13333333,0,0,-0.13333333,0,1000)" />
      <path
         id="path298"
         d="M 8750,375 8214.53,776.602 8000,937.5 V 656.25 l 42.5,-31.879 520,-390 V 0 h 62.5 l 125,93.75 V 375"
         style="fill:#002255;fill-opacity:1;fill-rule:nonzero;stroke:none"
         transform="matrix(0.13333333,0,0,-0.13333333,0,1000)" />
      <path
         id="path320"
         d="m 437.5,1828.12 230,172.5 145,108.75 L 0,2718.75 V 2437.5 l 437.5,-328.13 v -281.25"
         style="fill:#0044aa;fill-opacity:1;fill-rule:nonzero;stroke:none"
         transform="matrix(0.13333333,0,0,-0.13333333,0,1000)" />
      <path
         id="path321"
         d="M 855,1953.75 312.5,1546.87 v -281.25 l 730,547.5 20,15 v 281.25 L 855,1953.75"
         style="fill:#80b3ff;fill-opacity:1;fill-rule:nonzero;stroke:none"
         transform="matrix(0.13333333,0,0,-0.13333333,0,1000)" />
      <path
         id="path322"
         d="M 198.75,1930.31 125,1875 l 187.5,-140.63 73.75,55.32 51.25,38.43 v 281.25 L 198.75,1930.31"
         style="fill:#5599ff;fill-opacity:1;fill-rule:nonzero;stroke:none"
         transform="matrix(0.13333333,0,0,-0.13333333,0,1000)" />
      <path
         id="path323"
         d="M 0,3656.25 V 3375 l 312.5,-234.38 v 281.25 L 0,3656.25"
         style="fill:#0044aa;fill-opacity:1;fill-rule:nonzero;stroke:none"
         transform="matrix(0.13333333,0,0,-0.13333333,0,1000)" />
      <path
         id="path324"
         d="m 2375,1875 -187.5,140.62 v -281.25 z"
         style="fill:#0044aa;fill-opacity:1;fill-rule:nonzero;stroke:none"
         transform="matrix(0.13333333,0,0,-0.13333333,0,1000)" />
      <path
         id="path325"
         d="M 0,1781.25 V 1500 l 312.5,-234.38 v 281.25 L 0,1781.25"
         style="fill:#0044aa;fill-opacity:1;fill-rule:nonzero;stroke:none"
         transform="matrix(0.13333333,0,0,-0.13333333,0,1000)" />
      <path
         id="path326"
         d="M 312.5,2953.12 0,3187.5 v -281.25 l 312.5,-234.38 v 281.25"
         style="fill:#002255;fill-opacity:1;fill-rule:nonzero;stroke:none"
         transform="matrix(0.13333333,0,0,-0.13333333,0,1000)" />
      <path
         id="path327"
         d="M 0,375 V 93.75 l 187.5,140.621 z"
         style="fill:#002255;fill-opacity:1;fill-rule:nonzero;stroke:none"
         transform="matrix(0.13333333,0,0,-0.13333333,0,1000)" />
      <path
         id="path328"
         d="m 0,2250 v -281.25 l 187.5,140.62 z"
         style="fill:#002255;fill-opacity:1;fill-rule:nonzero;stroke:none"
         transform="matrix(0.13333333,0,0,-0.13333333,0,1000)" />
      <path
         id="path329"
         d="M 312.5,796.871 V 1078.12 L 0,1312.5 v -281.25 l 290,-217.5 22.5,-16.879"
         style="fill:#002255;fill-opacity:1;fill-rule:nonzero;stroke:none"
         transform="matrix(0.13333333,0,0,-0.13333333,0,1000)" />
      <path
         id="path330"
         d="M 1209.17,2749.37 1125,2812.5 v -281.25 l 8.55,-6.42 116.45,-87.33 v 281.25 l -40.83,30.62"
         style="fill:#0044aa;fill-opacity:1;fill-rule:nonzero;stroke:none"
         transform="matrix(0.13333333,0,0,-0.13333333,0,1000)" />
      <path
         id="path331"
         d="m 542.5,2499.37 520,-390 V 1828.12 L 1250,1968.75 V 2250 L 714.531,2651.6 500,2812.5 v -281.25 l 42.5,-31.88"
         style="fill:#002255;fill-opacity:1;fill-rule:nonzero;stroke:none"
         transform="matrix(0.13333333,0,0,-0.13333333,0,1000)" />
      <path
         id="path332"
         d="m 3000,3750 h -62.5 v -46.88 z"
         style="fill:#0044aa;fill-opacity:1;fill-rule:nonzero;stroke:none"
         transform="matrix(0.13333333,0,0,-0.13333333,0,1000)" />
      <path
         id="path333"
         d="M 312.5,2953.12 V 2671.87 L 500,2531.25 v 281.25 l 370.168,277.63 4.832,3.62 334.83,251.12 40.17,30.13 187.5,-140.63 v 281.25 L 1750,3750 h -375 l -687.5,-515.63 -375,-281.25"
         style="fill:#5599ff;fill-opacity:1;fill-rule:nonzero;stroke:none"
         transform="matrix(0.13333333,0,0,-0.13333333,0,1000)" />
      <path
         id="path334"
         d="m 1000,3000 -4.832,-3.62 L 750,2812.5 829.215,2753.09 856.086,2732.94 1125,2531.25 v 281.25 l 62.5,46.87 62.5,46.88 V 3187.5 L 1000,3000"
         style="fill:#80b3ff;fill-opacity:1;fill-rule:nonzero;stroke:none"
         transform="matrix(0.13333333,0,0,-0.13333333,0,1000)" />
      <path
         id="path335"
         d="m 1687.5,3515.62 65.97,-49.48 88.69,-66.51 220.34,-165.26 v 281.25 l 125,93.75 V 3750 H 2000 l -107.5,-80.63 -205,-153.75"
         style="fill:#80b3ff;fill-opacity:1;fill-rule:nonzero;stroke:none"
         transform="matrix(0.13333333,0,0,-0.13333333,0,1000)" />
      <path
         id="path336"
         d="m 500,3750 h -62.5 v -46.88 z"
         style="fill:#0044aa;fill-opacity:1;fill-rule:nonzero;stroke:none"
         transform="matrix(0.13333333,0,0,-0.13333333,0,1000)" />
      <path
         id="path337"
         d="m 1125,3750 h -62.5 v -46.88 z"
         style="fill:#002255;fill-opacity:1;fill-rule:nonzero;stroke:none"
         transform="matrix(0.13333333,0,0,-0.13333333,0,1000)" />
      <path
         id="path338"
         d="m 312.5,3421.87 v -281.25 l 250,187.5 408.668,306.51 91.332,68.49 V 3750 H 750 l -375,-281.25 -62.5,-46.88"
         style="fill:#80b3ff;fill-opacity:1;fill-rule:nonzero;stroke:none"
         transform="matrix(0.13333333,0,0,-0.13333333,0,1000)" />
      <path
         id="path339"
         d="m 2812.5,3140.62 730,547.5 20,15 V 3750 H 3250 l -437.5,-328.13 v -281.25"
         style="fill:#80b3ff;fill-opacity:1;fill-rule:nonzero;stroke:none"
         transform="matrix(0.13333333,0,0,-0.13333333,0,1000)" />
      <path
         id="path340"
         d="m 375,3656.25 62.5,46.87 V 3750 H 125 l 187.5,-140.63 62.5,46.88"
         style="fill:#5599ff;fill-opacity:1;fill-rule:nonzero;stroke:none"
         transform="matrix(0.13333333,0,0,-0.13333333,0,1000)" />
      <path
         id="path341"
         d="M 1937.5,2296.87 312.5,1078.12 V 796.871 L 500,656.25 V 937.5 l 312.5,234.37 379.83,284.88 57.67,43.25 187.5,-140.63 v 281.25 L 1750,1875 l 375,281.25 62.5,46.87 v 281.25 l -250,-187.5"
         style="fill:#5599ff;fill-opacity:1;fill-rule:nonzero;stroke:none"
         transform="matrix(0.13333333,0,0,-0.13333333,0,1000)" />
      <path
         id="path342"
         d="M 2312.5,3515.62 2500,3375 v 281.25 z"
         style="fill:#5599ff;fill-opacity:1;fill-rule:nonzero;stroke:none"
         transform="matrix(0.13333333,0,0,-0.13333333,0,1000)" />
      <path
         id="path343"
         d="m 2886.25,3664.69 51.25,38.43 V 3750 H 2625 l 187.5,-140.63 73.75,55.32"
         style="fill:#5599ff;fill-opacity:1;fill-rule:nonzero;stroke:none"
         transform="matrix(0.13333333,0,0,-0.13333333,0,1000)" />
      <path
         id="path344"
         d="M 2812.5,2671.87 3000,2531.25 v 281.25 l 312.5,234.37 379.83,284.88 57.67,43.25 187.5,-140.63 v 281.25 L 4250,3750 H 3875 L 2812.5,2953.12 v -281.25"
         style="fill:#5599ff;fill-opacity:1;fill-rule:nonzero;stroke:none"
         transform="matrix(0.13333333,0,0,-0.13333333,0,1000)" />
      <path
         id="path345"
         d="M 4875,3750 H 4687.5 V 3609.37 Z"
         style="fill:#0044aa;fill-opacity:1;fill-rule:nonzero;stroke:none"
         transform="matrix(0.13333333,0,0,-0.13333333,0,1000)" />
      <path
         id="path346"
         d="M 2254.34,3659.5 2375,3750 h -187.5 v -140.63 l 66.84,50.13"
         style="fill:#0044aa;fill-opacity:1;fill-rule:nonzero;stroke:none"
         transform="matrix(0.13333333,0,0,-0.13333333,0,1000)" />
      <path
         id="path347"
         d="M 2500,3656.25 V 3375 l 312.5,-234.38 v 281.25 L 2500,3656.25"
         style="fill:#0044aa;fill-opacity:1;fill-rule:nonzero;stroke:none"
         transform="matrix(0.13333333,0,0,-0.13333333,0,1000)" />
      <path
         id="path348"
         d="m 2500,1968.75 187.5,140.62 -500,375 V 2203.12 L 2500,1968.75"
         style="fill:#002255;fill-opacity:1;fill-rule:nonzero;stroke:none"
         transform="matrix(0.13333333,0,0,-0.13333333,0,1000)" />
      <path
         id="path349"
         d="m 4625,3468.75 -62.5,46.87 v -93.75 z"
         style="fill:#002255;fill-opacity:1;fill-rule:nonzero;stroke:none"
         transform="matrix(0.13333333,0,0,-0.13333333,0,1000)" />
      <path
         id="path350"
         d="m 2176.97,3429.78 -114.47,85.84 v -281.25 l 38.85,-29.13 688.65,-516.49 22.5,-16.88 v 281.25 l -635.53,476.66"
         style="fill:#002255;fill-opacity:1;fill-rule:nonzero;stroke:none"
         transform="matrix(0.13333333,0,0,-0.13333333,0,1000)" />
      <path
         id="path351"
         d="m 3625,3750 h -62.5 v -46.88 z"
         style="fill:#002255;fill-opacity:1;fill-rule:nonzero;stroke:none"
         transform="matrix(0.13333333,0,0,-0.13333333,0,1000)" />
      <path
         id="path352"
         d="M 1721.17,2603.38 1625,2531.25 1412.67,2372 1250,2250 v -281.25 l 307.57,230.68 254.93,191.19 96.17,72.13 91.33,68.5 v 281.25 l -278.83,-209.12"
         style="fill:#5599ff;fill-opacity:1;fill-rule:nonzero;stroke:none"
         transform="matrix(0.13333333,0,0,-0.13333333,0,1000)" />
      <path
         id="path353"
         d="M 1312.5,2765.62 1250,2718.75 V 2437.5 l 96.17,72.13 28.83,21.62 v 187.5 93.75 l -62.5,-46.88"
         style="fill:#5599ff;fill-opacity:1;fill-rule:nonzero;stroke:none"
         transform="matrix(0.13333333,0,0,-0.13333333,0,1000)" />
      <path
         id="path354"
         d="M 1562.5,2953.12 1250,3187.5 v -281.25 l 9.58,-7.19 115.42,-86.56 v -93.75 -187.5 l 125,93.75 250,187.5 -187.5,140.62"
         style="fill:#0044aa;fill-opacity:1;fill-rule:nonzero;stroke:none"
         transform="matrix(0.13333333,0,0,-0.13333333,0,1000)" />
      <path
         id="path355"
         d="m 4166.8,3343.65 -229.3,171.97 v -281.25 l 82.49,-61.86 105.01,-78.76 335,-251.25 40,-30 v -281.25 l 187.5,140.62 27.5,-20.62 285,-213.75 v 281.25 l -687.5,515.62 -145.7,109.28"
         style="fill:#0044aa;fill-opacity:1;fill-rule:nonzero;stroke:none"
         transform="matrix(0.13333333,0,0,-0.13333333,0,1000)" />
      <path
         id="path356"
         d="m 4687.5,1734.37 v 281.25 l -295,-221.25 -205,-153.75 65.97,-49.48 88.69,-66.51 220.34,-165.26 v 281.25 l 125,93.75"
         style="fill:#80b3ff;fill-opacity:1;fill-rule:nonzero;stroke:none"
         transform="matrix(0.13333333,0,0,-0.13333333,0,1000)" />
      <path
         id="path357"
         d="m 4250,2812.5 -187.5,140.62 -62.5,46.88 -250,187.5 v -281.25 l 32.04,-24.03 30.46,-22.85 62.5,-46.87 v -281.25 l 375,281.25"
         style="fill:#0044aa;fill-opacity:1;fill-rule:nonzero;stroke:none"
         transform="matrix(0.13333333,0,0,-0.13333333,0,1000)" />
      <path
         id="path358"
         d="M 3300.31,2118.52 3105,2265 l -42.5,31.87 -683.7,512.78 -203.8,152.85 -519.4,389.55 -218.1,163.57 v -281.25 l 71.28,-53.46 478.72,-359.04 12.5,-9.37 v -281.25 l 187.5,140.62 44.49,-33.36 643.01,-482.26 42.5,-31.88 20,-15 v -281.25 l 326.38,244.79 48.62,36.46 -12.19,9.15"
         style="fill:#0044aa;fill-opacity:1;fill-rule:nonzero;stroke:none"
         transform="matrix(0.13333333,0,0,-0.13333333,0,1000)" />
      <path
         id="path359"
         d="M 3437.5,2953.12 3250,2812.5 l 77.17,-57.88 62.04,-46.53 110.79,-83.09 125,-93.75 v 187.5 93.75 l 125,93.75 v 281.25 l -312.5,-234.38"
         style="fill:#80b3ff;fill-opacity:1;fill-rule:nonzero;stroke:none"
         transform="matrix(0.13333333,0,0,-0.13333333,0,1000)" />
      <path
         id="path360"
         d="m 4687.5,3750 v -140.63 l -125,-93.75 v -281.25 l -125,93.75 -89.6,67.2 -83.25,62.44 -77.15,57.86 L 4500,3750 h 187.5"
         style="fill:#80b3ff;fill-opacity:1;fill-rule:nonzero;stroke:none"
         transform="matrix(0.13333333,0,0,-0.13333333,0,1000)" />
      <path
         id="path361"
         d="M 3742.5,2255.62 3375,2531.25 3229.3,2640.53 3000,2812.5 v -281.25 l 82.49,-61.87 105.01,-78.76 367.5,-275.62 7.5,-5.63 V 1828.12 L 3750,1968.75 V 2250 l -7.5,5.62"
         style="fill:#002255;fill-opacity:1;fill-rule:nonzero;stroke:none"
         transform="matrix(0.13333333,0,0,-0.13333333,0,1000)" />
      <path
         id="path362"
         d="M 2687.5,1921.87 2625,1875 l 187.5,-140.63 62.5,46.88 62.5,46.87 v 281.25 l -250,-187.5"
         style="fill:#5599ff;fill-opacity:1;fill-rule:nonzero;stroke:none"
         transform="matrix(0.13333333,0,0,-0.13333333,0,1000)" />
      <path
         id="path363"
         d="M 4812.5,3515.62 5000,3375 v 281.25 z"
         style="fill:#5599ff;fill-opacity:1;fill-rule:nonzero;stroke:none"
         transform="matrix(0.13333333,0,0,-0.13333333,0,1000)" />
      <path
         id="path364"
         d="M 4812.5,1640.62 5000,1500 v 281.25 z"
         style="fill:#5599ff;fill-opacity:1;fill-rule:nonzero;stroke:none"
         transform="matrix(0.13333333,0,0,-0.13333333,0,1000)" />
      <path
         id="path365"
         d="M 4281.25,2648.44 3841.33,2318.5 3750,2250 v -281.25 l 145.35,109 573.4,430.06 31.25,23.44 v 281.25 l -218.75,-164.06"
         style="fill:#5599ff;fill-opacity:1;fill-rule:nonzero;stroke:none"
         transform="matrix(0.13333333,0,0,-0.13333333,0,1000)" />
      <path
         id="path366"
         d="M 3750,2718.75 V 2437.5 l 56.17,42.13 68.83,51.62 v 281.25 l -125,-93.75"
         style="fill:#5599ff;fill-opacity:1;fill-rule:nonzero;stroke:none"
         transform="matrix(0.13333333,0,0,-0.13333333,0,1000)" />
      <path
         id="path367"
         d="m 4675,1087.5 -519.4,389.55 -218.1,163.57 v -281.25 l 71.28,-53.46 L 4487.5,946.871 4500,937.5 V 656.25 l 187.5,140.621 44.49,-33.359 L 5000,562.5 V 843.75 L 4878.8,934.652 4675,1087.5"
         style="fill:#0044aa;fill-opacity:1;fill-rule:nonzero;stroke:none"
         transform="matrix(0.13333333,0,0,-0.13333333,0,1000)" />
      <path
         id="path368"
         d="M 4754.34,1784.5 4875,1875 4687.5,2015.62 v -281.25 l 66.84,50.13"
         style="fill:#0044aa;fill-opacity:1;fill-rule:nonzero;stroke:none"
         transform="matrix(0.13333333,0,0,-0.13333333,0,1000)" />
      <path
         id="path369"
         d="m 3731.63,2732.53 -44.13,33.09 -62.5,46.88 v -281.25 l 31.01,-23.25 93.99,-70.5 v 281.25 l -18.37,13.78"
         style="fill:#0044aa;fill-opacity:1;fill-rule:nonzero;stroke:none"
         transform="matrix(0.13333333,0,0,-0.13333333,0,1000)" />
      <path
         id="path370"
         d="m 4625,3468.75 -62.5,-46.88 v -187.5 l 32.36,-24.26 405.14,-303.86 v 281.25 l -329.52,247.14 -45.48,34.11"
         style="fill:#002255;fill-opacity:1;fill-rule:nonzero;stroke:none"
         transform="matrix(0.13333333,0,0,-0.13333333,0,1000)" />
      <path
         id="path371"
         d="M 4687.5,609.371 V 328.121 L 5000,93.75 V 375 l -312.5,234.371"
         style="fill:#002255;fill-opacity:1;fill-rule:nonzero;stroke:none"
         transform="matrix(0.13333333,0,0,-0.13333333,0,1000)" />
      <path
         id="path372"
         d="M 4687.5,2484.37 V 2203.12 L 5000,1968.75 V 2250 l -312.5,234.37"
         style="fill:#002255;fill-opacity:1;fill-rule:nonzero;stroke:none"
         transform="matrix(0.13333333,0,0,-0.13333333,0,1000)" />
      <path
         id="path373"
         d="m 4562.5,1640.62 v -281.25 l 38.85,-29.13 398.65,-298.99 v 281.25 l -323.03,242.28 -114.47,85.84"
         style="fill:#002255;fill-opacity:1;fill-rule:nonzero;stroke:none"
         transform="matrix(0.13333333,0,0,-0.13333333,0,1000)" />
      <path
         id="path374"
         d="m 3312.5,234.371 -1500,1124.999 -145.7,109.28 -229.3,171.97 v -281.25 l 82.49,-61.86 105.01,-78.76 335,-251.25 40,-30 V 656.25 L 2187.5,796.871 2215,776.25 2937.5,234.371 V 0 h 62.5 l 167.5,125.621 145,108.75"
         style="fill:#0044aa;fill-opacity:1;fill-rule:nonzero;stroke:none"
         transform="matrix(0.13333333,0,0,-0.13333333,0,1000)" />
      <path
         id="path375"
         d="m 3187.5,1359.37 -375,-281.25 V 796.871 L 3000,656.25 V 937.5 l 370.17,277.63 4.83,3.62 334.83,251.12 40.17,30.13 187.5,-140.63 v 281.25 l 330,247.5 420,315 v 281.25 l -1500,-1125"
         style="fill:#5599ff;fill-opacity:1;fill-rule:nonzero;stroke:none"
         transform="matrix(0.13333333,0,0,-0.13333333,0,1000)" />
      <path
         id="path376"
         d="m 2187.5,328.121 v 281.25 L 1375,0 h 375 l 17.5,13.1211 420,314.9999"
         style="fill:#5599ff;fill-opacity:1;fill-rule:nonzero;stroke:none"
         transform="matrix(0.13333333,0,0,-0.13333333,0,1000)" />
      <path
         id="path377"
         d="m 2000,0 h 187.5 v 140.621 z"
         style="fill:#80b3ff;fill-opacity:1;fill-rule:nonzero;stroke:none"
         transform="matrix(0.13333333,0,0,-0.13333333,0,1000)" />
      <path
         id="path378"
         d="m 1750,937.5 -187.5,140.62 -62.5,46.88 -250,187.5 v -281.25 l 32.04,-24.03 30.46,-22.849 L 1375,937.5 V 656.25 l 375,281.25"
         style="fill:#0044aa;fill-opacity:1;fill-rule:nonzero;stroke:none"
         transform="matrix(0.13333333,0,0,-0.13333333,0,1000)" />
      <path
         id="path379"
         d="M 812.5,234.371 800.309,243.52 605,390 562.5,421.871 0,843.75 V 562.5 l 375,-281.25 42.5,-31.879 20,-15 V 0 H 500 l 263.879,197.91 48.621,36.461"
         style="fill:#0044aa;fill-opacity:1;fill-rule:nonzero;stroke:none"
         transform="matrix(0.13333333,0,0,-0.13333333,0,1000)" />
      <path
         id="path380"
         d="M 937.5,1078.12 750,937.5 827.172,879.621 889.215,833.09 1000,750 1125,656.25 v 187.5 93.75 l 125,93.75 V 1312.5 L 937.5,1078.12"
         style="fill:#80b3ff;fill-opacity:1;fill-rule:nonzero;stroke:none"
         transform="matrix(0.13333333,0,0,-0.13333333,0,1000)" />
      <path
         id="path381"
         d="m 2187.5,2015.62 v -281.25 l -125,-93.75 v -281.25 l -375,281.25 500,375"
         style="fill:#80b3ff;fill-opacity:1;fill-rule:nonzero;stroke:none"
         transform="matrix(0.13333333,0,0,-0.13333333,0,1000)" />
      <path
         id="path382"
         d="m 1250,375 -7.5,5.621 L 875,656.25 729.297,765.531 500,937.5 V 656.25 L 582.484,594.379 687.5,515.621 1055,240 l 7.5,-5.629 V 0 h 62.5 l 125,93.75 V 375"
         style="fill:#002255;fill-opacity:1;fill-rule:nonzero;stroke:none"
         transform="matrix(0.13333333,0,0,-0.13333333,0,1000)" />
      <path
         id="path383"
         d="M 783.668,25.25 750,0 h 312.5 V 234.371 L 783.668,25.25"
         style="fill:#80b3ff;fill-opacity:1;fill-rule:nonzero;stroke:none"
         transform="matrix(0.13333333,0,0,-0.13333333,0,1000)" />
      <path
         id="path384"
         d="m 3283.67,1900.25 -408.67,-306.5 -62.5,-46.88 v -281.25 l 250,187.5 408.67,306.51 91.33,68.49 v 281.25 l -278.83,-209.12"
         style="fill:#80b3ff;fill-opacity:1;fill-rule:nonzero;stroke:none"
         transform="matrix(0.13333333,0,0,-0.13333333,0,1000)" />
      <path
         id="path385"
         d="M 3355,78.75 3250,0 h 312.5 V 234.371 L 3355,78.75"
         style="fill:#80b3ff;fill-opacity:1;fill-rule:nonzero;stroke:none"
         transform="matrix(0.13333333,0,0,-0.13333333,0,1000)" />
      <path
         id="path386"
         d="M 187.5,46.8711 125,0 H 437.5 V 234.371 L 187.5,46.8711"
         style="fill:#5599ff;fill-opacity:1;fill-rule:nonzero;stroke:none"
         transform="matrix(0.13333333,0,0,-0.13333333,0,1000)" />
      <path
         id="path387"
         d="M 2312.5,1640.62 2500,1500 v 281.25 z"
         style="fill:#5599ff;fill-opacity:1;fill-rule:nonzero;stroke:none"
         transform="matrix(0.13333333,0,0,-0.13333333,0,1000)" />
      <path
         id="path388"
         d="M 2698.75,55.3086 2625,0 h 312.5 V 234.371 L 2698.75,55.3086"
         style="fill:#5599ff;fill-opacity:1;fill-rule:nonzero;stroke:none"
         transform="matrix(0.13333333,0,0,-0.13333333,0,1000)" />
      <path
         id="path389"
         d="m 4687.5,328.121 v 281.25 l -250,-187.5 L 3875,0 h 375 l 375,281.25 62.5,46.871"
         style="fill:#5599ff;fill-opacity:1;fill-rule:nonzero;stroke:none"
         transform="matrix(0.13333333,0,0,-0.13333333,0,1000)" />
      <path
         id="path390"
         d="M 1781.25,773.441 1341.33,443.5 1250,375 V 93.75 l 145.35,109 573.4,430.059 31.25,23.441 V 937.5 L 1781.25,773.441"
         style="fill:#5599ff;fill-opacity:1;fill-rule:nonzero;stroke:none"
         transform="matrix(0.13333333,0,0,-0.13333333,0,1000)" />
      <path
         id="path391"
         d="M 1250,843.75 V 562.5 l 56.17,42.129 68.83,51.621 V 937.5 l -125,-93.75"
         style="fill:#5599ff;fill-opacity:1;fill-rule:nonzero;stroke:none"
         transform="matrix(0.13333333,0,0,-0.13333333,0,1000)" />
      <path
         id="path392"
         d="M 2500,1781.25 V 1500 l 312.5,-234.38 v 281.25 L 2500,1781.25"
         style="fill:#0044aa;fill-opacity:1;fill-rule:nonzero;stroke:none"
         transform="matrix(0.13333333,0,0,-0.13333333,0,1000)" />
      <path
         id="path393"
         d="M 2187.5,0 H 2375 l -187.5,140.621 z"
         style="fill:#0044aa;fill-opacity:1;fill-rule:nonzero;stroke:none"
         transform="matrix(0.13333333,0,0,-0.13333333,0,1000)" />
      <path
         id="path394"
         d="m 4500,0 h 187.5 v 140.621 z"
         style="fill:#80b3ff;fill-opacity:1;fill-rule:nonzero;stroke:none"
         transform="matrix(0.13333333,0,0,-0.13333333,0,1000)" />
      <path
         id="path395"
         d="M 4687.5,0 H 4875 l -187.5,140.621 z"
         style="fill:#0044aa;fill-opacity:1;fill-rule:nonzero;stroke:none"
         transform="matrix(0.13333333,0,0,-0.13333333,0,1000)" />
      <path
         id="path396"
         d="M 1231.63,857.531 1187.5,890.621 1125,937.5 V 656.25 L 1156.01,633 1250,562.5 v 281.25 l -18.37,13.781"
         style="fill:#0044aa;fill-opacity:1;fill-rule:nonzero;stroke:none"
         transform="matrix(0.13333333,0,0,-0.13333333,0,1000)" />
      <path
         id="path397"
         d="m 2170.48,1559.64 -45.48,34.11 -62.5,46.87 v -281.25 l 32.36,-24.26 717.64,-538.239 v 281.249 l -642.02,481.52"
         style="fill:#002255;fill-opacity:1;fill-rule:nonzero;stroke:none"
         transform="matrix(0.13333333,0,0,-0.13333333,0,1000)" />
      <path
         id="path398"
         d="m 2500,93.75 187.5,140.621 -500,375 V 328.121 L 2500,93.75"
         style="fill:#002255;fill-opacity:1;fill-rule:nonzero;stroke:none"
         transform="matrix(0.13333333,0,0,-0.13333333,0,1000)" />
      <path
         id="path399"
         d="m 3500,1125 -4.83,-3.62 L 3250,937.5 3329.21,878.09 3356.08,857.941 3625,656.25 V 937.5 l 62.5,46.871 62.5,46.879 V 1312.5 L 3500,1125"
         style="fill:#80b3ff;fill-opacity:1;fill-rule:nonzero;stroke:none"
         transform="matrix(0.13333333,0,0,-0.13333333,0,1000)" />
      <path
         id="path400"
         d="M 4221.17,728.379 4125,656.25 3912.67,497 3750,375 V 93.75 l 307.57,230.68 254.93,191.191 96.17,72.129 91.33,68.5 V 937.5 L 4221.17,728.379"
         style="fill:#5599ff;fill-opacity:1;fill-rule:nonzero;stroke:none"
         transform="matrix(0.13333333,0,0,-0.13333333,0,1000)" />
      <path
         id="path401"
         d="M 3812.5,890.621 3750,843.75 V 562.5 l 96.17,72.129 28.83,21.621 v 187.5 93.75 l -62.5,-46.879"
         style="fill:#5599ff;fill-opacity:1;fill-rule:nonzero;stroke:none"
         transform="matrix(0.13333333,0,0,-0.13333333,0,1000)" />
      <path
         id="path402"
         d="M 4062.5,1078.12 3750,1312.5 v -281.25 l 9.58,-7.19 L 3875,937.5 v -93.75 -187.5 l 125,93.75 250,187.5 -187.5,140.62"
         style="fill:#0044aa;fill-opacity:1;fill-rule:nonzero;stroke:none"
         transform="matrix(0.13333333,0,0,-0.13333333,0,1000)" />
      <path
         id="path403"
         d="M 3709.17,874.371 3625,937.5 V 656.25 l 8.55,-6.422 L 3750,562.5 v 281.25 l -40.83,30.621"
         style="fill:#0044aa;fill-opacity:1;fill-rule:nonzero;stroke:none"
         transform="matrix(0.13333333,0,0,-0.13333333,0,1000)" />
      <path
         id="path404"
         d="M 3750,375 3214.53,776.602 3000,937.5 V 656.25 l 42.5,-31.879 520,-390 V 0 h 62.5 l 125,93.75 V 375"
         style="fill:#002255;fill-opacity:1;fill-rule:nonzero;stroke:none"
         transform="matrix(0.13333333,0,0,-0.13333333,0,1000)" />
    </g>
  </g>
</svg>
