<?xml version="1.0" encoding="UTF-8" standalone="no"?>
<!-- Created with Inkscape (http://www.inkscape.org/) -->

<svg
   version="1.1"
   width="200"
   height="67.152"
   id="svg4534"
   xml:space="preserve"
   sodipodi:docname="EMC.svg"
   inkscape:version="1.3.2 (091e20e, 2023-11-25)"
   inkscape:export-filename="../logos/EMC.svg"
   inkscape:export-xdpi="457.47"
   inkscape:export-ydpi="457.47"
   xmlns:inkscape="http://www.inkscape.org/namespaces/inkscape"
   xmlns:sodipodi="http://sodipodi.sourceforge.net/DTD/sodipodi-0.dtd"
   xmlns="http://www.w3.org/2000/svg"
   xmlns:svg="http://www.w3.org/2000/svg"><sodipodi:namedview
     id="namedview1"
     pagecolor="#505050"
     bordercolor="#ffffff"
     borderopacity="1"
     inkscape:showpageshadow="0"
     inkscape:pageopacity="0"
     inkscape:pagecheckerboard="1"
     inkscape:deskcolor="#505050"
     inkscape:zoom="4.0873354"
     inkscape:cx="69.360592"
     inkscape:cy="39.267637"
     inkscape:window-width="1680"
     inkscape:window-height="1022"
     inkscape:window-x="0"
     inkscape:window-y="0"
     inkscape:window-maximized="1"
     inkscape:current-layer="g5"
     inkscape:export-bgcolor="#ffffffff" /><defs
     id="defs4536" /><g
     id="g5"
     transform="matrix(1.0684837,0,0,1.0684837,9.9997044,3.3574961)"><g
       id="g8301"
       transform="matrix(0.45526325,0,0,0.45526325,-185.15269,-291.51382)"><path
         style="fill:#147d73;fill-opacity:1"
         d="m 471.40513,700.46811 -1.21145,-0.0943 -4,-2.38364 -4,-2.38363 0.3097,-1.5912 0.30971,-1.5912 8.51875,-26.05244 8.51876,-26.05245 0.78202,0.87154 0.78203,0.87154 5.88951,16.18751 5.88952,16.18751 7,1.13678 7,1.13677 1.85794,0.52737 1.85794,0.52736 -3.69997,-7.04107 -3.69998,-7.04106 -8.20777,-5.16946 -8.20778,-5.16946 -1.60584,-6.14112 -1.60585,-6.14113 0.26966,-0.28066 0.26965,-0.28067 13.02522,8.28067 13.02522,8.28066 8.70855,15.8189 8.70855,15.81889 -0.55879,0.55879 -0.55879,0.55879 -20.21765,-3.41369 -20.21765,-3.41369 -2.4255,-7.27649 -2.42549,-7.2765 -0.48602,0.48602 -0.48601,0.48601 -2.96378,11.82649 -2.96378,11.82648 -0.98458,3.75 -0.98459,3.75 z"
         id="path8289" /><path
         style="fill:#d8a933;fill-opacity:1"
         d="m 469.70396,715.49729 -0.51028,-0.0651 -20.5,-15.43782 -20.5,-15.43782 -0.302,-0.90308 -0.30199,-0.90308 4.80199,-1.02224 4.802,-1.02224 9.09622,-1.73618 9.09622,-1.73619 4.15917,-12.58559 4.15917,-12.58559 -0.005,-0.75 -0.005,-0.75 h -1.39258 -1.39258 l -10.35742,13.89711 -10.35742,13.89712 -5.41678,1.10288 -5.41678,1.10289 h -0.94823 -0.94823 l 1.79226,-2.75 1.79227,-2.75 12.84221,-17.25 12.84221,-17.25 h 9.98053 9.98054 v 1.0951 1.09509 l -7.18433,21.15491 -7.18434,21.1549 -1.06566,0.73469 -1.06567,0.73469 -6.98665,0.0153 -6.98665,0.0153 5.01802,3.25 5.01802,3.25 1.96863,1.1914 1.96863,1.1914 8.72542,5.11433 8.72543,5.11433 0.51701,0.83653 0.517,0.83654 -4.23215,4.10774 -4.23215,4.10773 z"
         id="path8288" /><path
         style="fill:#652e51;fill-opacity:1"
         d="m 441.17631,749.56234 h -0.48263 v -1.34398 -1.34398 l 3,-14.81204 3,-14.81203 v -0.75425 -0.75425 l -8.25,-6.74635 -8.25,-6.74635 -1.5337,-1.30262 -1.5337,-1.30262 -4.11251,4.77433 -4.11251,4.77433 11.40358,12.10131 11.40359,12.1013 -1.10139,5.1356 -1.10139,5.13559 -0.86595,-0.30199 -0.86595,-0.302 -15.54004,-16.32184 -15.54003,-16.32185 v -0.97141 -0.97142 l 9.71444,-10.90148 9.71444,-10.90148 4.53556,3.6738 4.53556,3.67381 8.53737,7.02094 8.53738,7.02093 3.27222,2.5 3.27222,2.5 -2.59975,6.87952 -2.59976,6.87953 0.29016,0.74604 0.29016,0.74603 14,-10.32589 14,-10.32588 0.77475,-0.0497 0.77475,-0.0497 1.04801,2.75 1.04801,2.75 0.52178,2.59769 0.52177,2.59768 -22.6119,15.65232 -22.6119,15.65231 z"
         id="path8279" /><path
         style="fill:#434345;fill-opacity:1"
         d="m 514.05103,756.56234 h -1.27147 l -3.00375,-9.75 -3.00376,-9.75 -4.0374,-13 -4.03739,-13 2.76432,-2.5 2.76432,-2.5 4.35311,-3.58872 4.35312,-3.58872 -15.95407,-2.16128 -15.95406,-2.16128 h -2.30109 -2.30108 l 0.64023,-4.67097 0.64023,-4.67097 0.47146,-0.47146 0.47147,-0.47147 27.27423,4.22155 27.27423,4.22156 1.34666,0.42659 1.34666,0.42659 -9.90985,7.74429 -9.90985,7.74429 -3.24452,2.5 -3.24451,2.5 4.67305,15 4.67306,15 0.39435,0.6702 0.39435,0.67021 7.2403,-1.98619 7.2403,-1.98618 3.5,-3.72865 3.5,-3.72866 6.75,-8.21562 6.75,-8.21562 v -0.79772 -0.79771 l -13.75,-4.72788 -13.75,-4.72788 -1.32585,-0.82004 -1.32585,-0.82005 4.15836,-3.29348 4.15836,-3.29348 17.16749,5.80462 17.16749,5.80461 2.11992,1.09476 2.11993,1.09476 -14.27883,17.37319 -14.27882,17.37319 -1.42119,1.42119 -1.42119,1.42119 -12.35551,3.45562 -12.3555,3.45562 z"
         id="path8261" /><path
         style="fill:#36464b;fill-opacity:1"
         d="m 479.49391,764.53811 -2.30023,-0.0242 -15.92883,-5.26223 -15.92882,-5.26224 -0.2658,-0.96353 -0.26579,-0.96353 14.54588,-11.5 14.54589,-11.5 1.40277,-0.80195 1.40277,-0.80195 9.19951,5.51508 9.1995,5.51507 0.31549,-0.31548 0.31548,-0.31549 -7.00169,-20.33164 -7.00169,-20.33164 0.41864,-0.41864 0.41864,-0.41864 4.90443,0.67453 4.90442,0.67453 7.29712,23.67811 7.29712,23.67811 1.87129,5.90786 1.87129,5.90785 -0.28941,0.28942 -0.28942,0.28941 -12.46939,-7.01559 -12.4694,-7.01559 -4.06484,-2.36532 -4.06484,-2.36532 -6.80161,5.42034 -6.80161,5.42034 1.36645,0.50585 1.36645,0.50584 7,2.33963 7,2.33963 6,-1.81859 6,-1.81859 2,0.0336 2,0.0336 5.40482,2.79812 5.40482,2.79812 -0.90482,0.54408 -0.90482,0.54408 -11.69977,3.11062 -11.69976,3.11062 z"
         id="path8260" /></g><text
       xml:space="preserve"
       style="font-size:12.4835px;fill:#36464b;stroke-width:10.4029;paint-order:fill markers stroke"
       x="80.072502"
       y="17.010252"
       id="text1"><tspan
         sodipodi:role="line"
         id="tspan1"
         x="80.072502"
         y="17.010252"
         style="font-style:normal;font-variant:normal;font-weight:800;font-stretch:normal;font-family:'Reddit Sans';-inkscape-font-specification:'Reddit Sans Ultra-Bold';stroke-width:10.4029">ETHIOPIAN</tspan><tspan
         sodipodi:role="line"
         x="80.072502"
         y="32.738049"
         style="font-style:normal;font-variant:normal;font-weight:800;font-stretch:normal;font-family:'Reddit Sans';-inkscape-font-specification:'Reddit Sans Ultra-Bold';stroke-width:10.4029"
         id="tspan2">MINERAL</tspan><tspan
         sodipodi:role="line"
         x="80.072502"
         y="48.465843"
         style="font-style:normal;font-variant:normal;font-weight:800;font-stretch:normal;font-family:'Reddit Sans';-inkscape-font-specification:'Reddit Sans Ultra-Bold';stroke-width:10.4029"
         id="tspan4">CORPORATION</tspan><tspan
         sodipodi:role="line"
         x="80.072502"
         y="64.193634"
         style="font-style:normal;font-variant:normal;font-weight:800;font-stretch:normal;font-family:'Reddit Sans';-inkscape-font-specification:'Reddit Sans Ultra-Bold';stroke-width:10.4029"
         id="tspan3" /></text></g></svg>
